<?xml version="1.0" encoding="utf-8"?>
<!-- Generator: Adobe Illustrator 27.8.1, SVG Export Plug-In . SVG Version: 6.00 Build 0)  -->
<svg version="1.1" xmlns="http://www.w3.org/2000/svg" xmlns:xlink="http://www.w3.org/1999/xlink" x="0px" y="0px"
	 viewBox="0 0 815 392" style="enable-background:new 0 0 815 392;" xml:space="preserve">
<style type="text/css">
	.st0{fill-opacity:0;stroke:#000000;stroke-width:0.1417;stroke-linecap:round;stroke-linejoin:round;stroke-miterlimit:11.3386;}
	.st1{fill-opacity:0;stroke:#000000;stroke-width:0.5669;stroke-linecap:round;stroke-linejoin:round;stroke-miterlimit:11.3386;}
</style>
<g id="Layer_1" xmlns:svg="http://www.w3.org/2000/svg">
	<g transform="translate(0 0) scale(1 1)">
	</g>
	<path class="st0" d="M373.4,228.6c0.3,0,0.5,0.2,0.5,0.5C373.9,228.8,373.7,228.6,373.4,228.6h-12.8v-0.5c0-0.3-0.2-0.5-0.5-0.5h-8
		c-0.3,0-0.5,0.2-0.5,0.5v13c0,0.3,0.2,0.5,0.5,0.5h7.8v0.5c0,0.3,0.2,0.5,0.5,0.5h13c0.3,0,0.5-0.2,0.5-0.5v-13"/>
</g>
<g id="Layer_2">
	<path class="st0" d="M267.6,247.6h13c0.3,0,0.5,0.2,0.5,0.5v13c0,0.3-0.2,0.5-0.5,0.5h-13c-0.3,0-0.5-0.2-0.5-0.5v-13
		C267.1,247.8,267.3,247.6,267.6,247.6z"/>
	<path class="st0" d="M267.6,228.6h13c0.3,0,0.5,0.2,0.5,0.5v13c0,0.3-0.2,0.5-0.5,0.5h-13c-0.3,0-0.5-0.2-0.5-0.5v-13
		C267.1,228.8,267.3,228.6,267.6,228.6z"/>
	<path class="st0" d="M286.6,228.6h13c0.3,0,0.5,0.2,0.5,0.5v13c0,0.3-0.2,0.5-0.5,0.5h-13c-0.3,0-0.5-0.2-0.5-0.5v-13
		C286.1,228.8,286.3,228.6,286.6,228.6z"/>
	<path class="st0" d="M291.4,247.6h13c0.3,0,0.5,0.2,0.5,0.5v13c0,0.3-0.2,0.5-0.5,0.5h-13c-0.3,0-0.5-0.2-0.5-0.5v-13
		C290.9,247.8,291.1,247.6,291.4,247.6z"/>
	<path class="st0" d="M305.6,228.6h13c0.3,0,0.5,0.2,0.5,0.5v13c0,0.3-0.2,0.5-0.5,0.5h-13c-0.3,0-0.5-0.2-0.5-0.5v-13
		C305.1,228.8,305.3,228.6,305.6,228.6z"/>
	<path class="st0" d="M319.9,247.6h13c0.3,0,0.5,0.2,0.5,0.5v13c0,0.3-0.2,0.5-0.5,0.5h-13c-0.3,0-0.5-0.2-0.5-0.5v-13
		C319.4,247.8,319.6,247.6,319.9,247.6z"/>
	<path class="st0" d="M324.7,228.6h13c0.3,0,0.5,0.2,0.5,0.5v13c0,0.3-0.2,0.5-0.5,0.5h-13c-0.3,0-0.5-0.2-0.5-0.5v-13
		C324.2,228.8,324.4,228.6,324.7,228.6z"/>
	<path class="st0" d="M286.6,209.5h13c0.3,0,0.5,0.2,0.5,0.5v13c0,0.3-0.2,0.5-0.5,0.5h-13c-0.3,0-0.5-0.2-0.5-0.5v-13
		C286.1,209.7,286.3,209.5,286.6,209.5z"/>
	<path class="st0" d="M305.6,209.5h13c0.3,0,0.5,0.2,0.5,0.5v13c0,0.3-0.2,0.5-0.5,0.5h-13c-0.3,0-0.5-0.2-0.5-0.5v-13
		C305.1,209.7,305.3,209.5,305.6,209.5z"/>
	<path class="st0" d="M324.7,209.5h13c0.3,0,0.5,0.2,0.5,0.5v13c0,0.3-0.2,0.5-0.5,0.5h-13c-0.3,0-0.5-0.2-0.5-0.5v-13
		C324.2,209.7,324.4,209.5,324.7,209.5z"/>
	<path class="st0" d="M343.7,209.5h13c0.3,0,0.5,0.2,0.5,0.5v13c0,0.3-0.2,0.5-0.5,0.5h-13c-0.3,0-0.5-0.2-0.5-0.5v-13
		C343.2,209.7,343.4,209.5,343.7,209.5z"/>
	<path class="st0" d="M362.8,209.5h13c0.3,0,0.5,0.2,0.5,0.5v13c0,0.3-0.2,0.5-0.5,0.5h-13c-0.3,0-0.5-0.2-0.5-0.5v-13
		C362.3,209.7,362.5,209.5,362.8,209.5z"/>
	<path class="st0" d="M362.8,190.5h13c0.3,0,0.5,0.2,0.5,0.5v13c0,0.3-0.2,0.5-0.5,0.5h-13c-0.3,0-0.5-0.2-0.5-0.5v-13
		C362.3,190.7,362.5,190.5,362.8,190.5z"/>
	<path class="st0" d="M343.7,190.5h13c0.3,0,0.5,0.2,0.5,0.5v13c0,0.3-0.2,0.5-0.5,0.5h-13c-0.3,0-0.5-0.2-0.5-0.5v-13
		C343.2,190.7,343.4,190.5,343.7,190.5z"/>
	<path class="st0" d="M324.7,190.5h13c0.3,0,0.5,0.2,0.5,0.5v13c0,0.3-0.2,0.5-0.5,0.5h-13c-0.3,0-0.5-0.2-0.5-0.5v-13
		C324.2,190.7,324.4,190.5,324.7,190.5z"/>
	<path class="st0" d="M305.6,190.5h13c0.3,0,0.5,0.2,0.5,0.5v13c0,0.3-0.2,0.5-0.5,0.5h-13c-0.3,0-0.5-0.2-0.5-0.5v-13
		C305.1,190.7,305.3,190.5,305.6,190.5z"/>
	<path class="st0" d="M286.6,190.5h13c0.3,0,0.5,0.2,0.5,0.5v13c0,0.3-0.2,0.5-0.5,0.5h-13c-0.3,0-0.5-0.2-0.5-0.5v-13
		C286.1,190.7,286.3,190.5,286.6,190.5z"/>
	<path class="st0" d="M362.8,171.4h13c0.3,0,0.5,0.2,0.5,0.5v13c0,0.3-0.2,0.5-0.5,0.5h-13c-0.3,0-0.5-0.2-0.5-0.5v-13
		C362.3,171.6,362.5,171.4,362.8,171.4z"/>
	<path class="st0" d="M343.7,171.4h13c0.3,0,0.5,0.2,0.5,0.5v13c0,0.3-0.2,0.5-0.5,0.5h-13c-0.3,0-0.5-0.2-0.5-0.5v-13
		C343.2,171.6,343.4,171.4,343.7,171.4z"/>
	<path class="st0" d="M324.7,171.4h13c0.3,0,0.5,0.2,0.5,0.5v13c0,0.3-0.2,0.5-0.5,0.5h-13c-0.3,0-0.5-0.2-0.5-0.5v-13
		C324.2,171.6,324.4,171.4,324.7,171.4z"/>
	<path class="st0" d="M305.6,171.4h13c0.3,0,0.5,0.2,0.5,0.5v13c0,0.3-0.2,0.5-0.5,0.5h-13c-0.3,0-0.5-0.2-0.5-0.5v-13
		C305.1,171.6,305.3,171.4,305.6,171.4z"/>
	<path class="st0" d="M286.6,171.4h13c0.3,0,0.5,0.2,0.5,0.5v13c0,0.3-0.2,0.5-0.5,0.5h-13c-0.3,0-0.5-0.2-0.5-0.5v-13
		C286.1,171.6,286.3,171.4,286.6,171.4z"/>
	<path class="st0" d="M267.6,171.4h13c0.3,0,0.5,0.2,0.5,0.5v13c0,0.3-0.2,0.5-0.5,0.5h-13c-0.3,0-0.5-0.2-0.5-0.5v-13
		C267.1,171.6,267.3,171.4,267.6,171.4z"/>
	<path class="st0" d="M267.6,152.4h13c0.3,0,0.5,0.2,0.5,0.5v13c0,0.3-0.2,0.5-0.5,0.5h-13c-0.3,0-0.5-0.2-0.5-0.5v-13
		C267.1,152.6,267.3,152.4,267.6,152.4z"/>
	<path class="st0" d="M286.6,152.4h13c0.3,0,0.5,0.2,0.5,0.5v13c0,0.3-0.2,0.5-0.5,0.5h-13c-0.3,0-0.5-0.2-0.5-0.5v-13
		C286.1,152.6,286.3,152.4,286.6,152.4z"/>
	<path class="st0" d="M305.6,152.4h13c0.3,0,0.5,0.2,0.5,0.5v13c0,0.3-0.2,0.5-0.5,0.5h-13c-0.3,0-0.5-0.2-0.5-0.5v-13
		C305.1,152.6,305.3,152.4,305.6,152.4z"/>
	<path class="st0" d="M324.7,152.4h13c0.3,0,0.5,0.2,0.5,0.5v13c0,0.3-0.2,0.5-0.5,0.5h-13c-0.3,0-0.5-0.2-0.5-0.5v-13
		C324.2,152.6,324.4,152.4,324.7,152.4z"/>
	<path class="st0" d="M343.7,152.4h13c0.3,0,0.5,0.2,0.5,0.5v13c0,0.3-0.2,0.5-0.5,0.5h-13c-0.3,0-0.5-0.2-0.5-0.5v-13
		C343.2,152.6,343.4,152.4,343.7,152.4z"/>
	<path class="st0" d="M362.8,152.4h13c0.3,0,0.5,0.2,0.5,0.5v13c0,0.3-0.2,0.5-0.5,0.5h-13c-0.3,0-0.5-0.2-0.5-0.5v-13
		C362.3,152.6,362.5,152.4,362.8,152.4z"/>
	<path class="st0" d="M362.8,133.3h13c0.3,0,0.5,0.2,0.5,0.5v13c0,0.3-0.2,0.5-0.5,0.5h-13c-0.3,0-0.5-0.2-0.5-0.5v-13
		C362.3,133.5,362.5,133.3,362.8,133.3z"/>
	<path class="st0" d="M343.7,133.3h13c0.3,0,0.5,0.2,0.5,0.5v13c0,0.3-0.2,0.5-0.5,0.5h-13c-0.3,0-0.5-0.2-0.5-0.5v-13
		C343.2,133.5,343.4,133.3,343.7,133.3z"/>
	<path class="st0" d="M324.7,133.3h13c0.3,0,0.5,0.2,0.5,0.5v13c0,0.3-0.2,0.5-0.5,0.5h-13c-0.3,0-0.5-0.2-0.5-0.5v-13
		C324.2,133.5,324.4,133.3,324.7,133.3z"/>
	<path class="st0" d="M305.6,133.3h13c0.3,0,0.5,0.2,0.5,0.5v13c0,0.3-0.2,0.5-0.5,0.5h-13c-0.3,0-0.5-0.2-0.5-0.5v-13
		C305.1,133.5,305.3,133.3,305.6,133.3z"/>
	<path class="st0" d="M286.6,133.3h13c0.3,0,0.5,0.2,0.5,0.5v13c0,0.3-0.2,0.5-0.5,0.5h-13c-0.3,0-0.5-0.2-0.5-0.5v-13
		C286.1,133.5,286.3,133.3,286.6,133.3z"/>
	<path class="st0" d="M267.6,133.3h13c0.3,0,0.5,0.2,0.5,0.5v13c0,0.3-0.2,0.5-0.5,0.5h-13c-0.3,0-0.5-0.2-0.5-0.5v-13
		C267.1,133.5,267.3,133.3,267.6,133.3z"/>
	<path class="st0" d="M381.8,133.3h13c0.3,0,0.5,0.2,0.5,0.5v13c0,0.3-0.2,0.5-0.5,0.5h-13c-0.3,0-0.5-0.2-0.5-0.5v-13
		C381.3,133.5,381.5,133.3,381.8,133.3z"/>
	<path class="st0" d="M400.9,133.3h13c0.3,0,0.5,0.2,0.5,0.5v13c0,0.3-0.2,0.5-0.5,0.5h-13c-0.3,0-0.5-0.2-0.5-0.5v-13
		C400.4,133.5,400.6,133.3,400.9,133.3z"/>
	<path class="st0" d="M419.9,133.3h13c0.3,0,0.5,0.2,0.5,0.5v13c0,0.3-0.2,0.5-0.5,0.5h-13c-0.3,0-0.5-0.2-0.5-0.5v-13
		C419.4,133.5,419.6,133.3,419.9,133.3z"/>
	<path class="st0" d="M439,133.3h13c0.3,0,0.5,0.2,0.5,0.5v13c0,0.3-0.2,0.5-0.5,0.5h-13c-0.3,0-0.5-0.2-0.5-0.5v-13
		C438.5,133.5,438.7,133.3,439,133.3z"/>
	<path class="st0" d="M458,133.3h13c0.3,0,0.5,0.2,0.5,0.5v13c0,0.3-0.2,0.5-0.5,0.5h-13c-0.3,0-0.5-0.2-0.5-0.5v-13
		C457.5,133.5,457.7,133.3,458,133.3z"/>
	<path class="st0" d="M477.1,133.3h13c0.3,0,0.5,0.2,0.5,0.5v13c0,0.3-0.2,0.5-0.5,0.5h-13c-0.3,0-0.5-0.2-0.5-0.5v-13
		C476.6,133.5,476.8,133.3,477.1,133.3z"/>
	<path class="st0" d="M496.1,133.3h13c0.3,0,0.5,0.2,0.5,0.5v13c0,0.3-0.2,0.5-0.5,0.5h-13c-0.3,0-0.5-0.2-0.5-0.5v-13
		C495.6,133.5,495.8,133.3,496.1,133.3z"/>
	<path class="st0" d="M515.2,133.3h13c0.3,0,0.5,0.2,0.5,0.5v13c0,0.3-0.2,0.5-0.5,0.5h-13c-0.3,0-0.5-0.2-0.5-0.5v-13
		C514.7,133.5,514.9,133.3,515.2,133.3z"/>
	<path class="st0" d="M534.2,133.3h13c0.3,0,0.5,0.2,0.5,0.5v13c0,0.3-0.2,0.5-0.5,0.5h-13c-0.3,0-0.5-0.2-0.5-0.5v-13
		C533.7,133.5,533.9,133.3,534.2,133.3z"/>
	<path class="st0" d="M534.2,152.4h13c0.3,0,0.5,0.2,0.5,0.5v13c0,0.3-0.2,0.5-0.5,0.5h-13c-0.3,0-0.5-0.2-0.5-0.5v-13
		C533.7,152.6,533.9,152.4,534.2,152.4z"/>
	<path class="st0" d="M515.2,152.4h13c0.3,0,0.5,0.2,0.5,0.5v13c0,0.3-0.2,0.5-0.5,0.5h-13c-0.3,0-0.5-0.2-0.5-0.5v-13
		C514.7,152.6,514.9,152.4,515.2,152.4z"/>
	<path class="st0" d="M496.1,152.4h13c0.3,0,0.5,0.2,0.5,0.5v13c0,0.3-0.2,0.5-0.5,0.5h-13c-0.3,0-0.5-0.2-0.5-0.5v-13
		C495.6,152.6,495.8,152.4,496.1,152.4z"/>
	<path class="st0" d="M477.1,152.4h13c0.3,0,0.5,0.2,0.5,0.5v13c0,0.3-0.2,0.5-0.5,0.5h-13c-0.3,0-0.5-0.2-0.5-0.5v-13
		C476.6,152.6,476.8,152.4,477.1,152.4z"/>
	<path class="st0" d="M458,152.4h13c0.3,0,0.5,0.2,0.5,0.5v13c0,0.3-0.2,0.5-0.5,0.5h-13c-0.3,0-0.5-0.2-0.5-0.5v-13
		C457.5,152.6,457.7,152.4,458,152.4z"/>
	<path class="st0" d="M439,152.4h13c0.3,0,0.5,0.2,0.5,0.5v13c0,0.3-0.2,0.5-0.5,0.5h-13c-0.3,0-0.5-0.2-0.5-0.5v-13
		C438.5,152.6,438.7,152.4,439,152.4z"/>
	<path class="st0" d="M419.9,152.4h13c0.3,0,0.5,0.2,0.5,0.5v13c0,0.3-0.2,0.5-0.5,0.5h-13c-0.3,0-0.5-0.2-0.5-0.5v-13
		C419.4,152.6,419.6,152.4,419.9,152.4z"/>
	<path class="st0" d="M400.9,152.4h13c0.3,0,0.5,0.2,0.5,0.5v13c0,0.3-0.2,0.5-0.5,0.5h-13c-0.3,0-0.5-0.2-0.5-0.5v-13
		C400.4,152.6,400.6,152.4,400.9,152.4z"/>
	<path class="st0" d="M534.2,171.4h13c0.3,0,0.5,0.2,0.5,0.5v13c0,0.3-0.2,0.5-0.5,0.5h-13c-0.3,0-0.5-0.2-0.5-0.5v-13
		C533.7,171.6,533.9,171.4,534.2,171.4z"/>
	<path class="st0" d="M515.2,171.4h13c0.3,0,0.5,0.2,0.5,0.5v13c0,0.3-0.2,0.5-0.5,0.5h-13c-0.3,0-0.5-0.2-0.5-0.5v-13
		C514.7,171.6,514.9,171.4,515.2,171.4z"/>
	<path class="st0" d="M496.1,171.4h13c0.3,0,0.5,0.2,0.5,0.5v13c0,0.3-0.2,0.5-0.5,0.5h-13c-0.3,0-0.5-0.2-0.5-0.5v-13
		C495.6,171.6,495.8,171.4,496.1,171.4z"/>
	<path class="st0" d="M477.1,171.4h13c0.3,0,0.5,0.2,0.5,0.5v13c0,0.3-0.2,0.5-0.5,0.5h-13c-0.3,0-0.5-0.2-0.5-0.5v-13
		C476.6,171.6,476.8,171.4,477.1,171.4z"/>
	<path class="st0" d="M458,171.4h13c0.3,0,0.5,0.2,0.5,0.5v13c0,0.3-0.2,0.5-0.5,0.5h-13c-0.3,0-0.5-0.2-0.5-0.5v-13
		C457.5,171.6,457.7,171.4,458,171.4z"/>
	<path class="st0" d="M439,171.4h13c0.3,0,0.5,0.2,0.5,0.5v13c0,0.3-0.2,0.5-0.5,0.5h-13c-0.3,0-0.5-0.2-0.5-0.5v-13
		C438.5,171.6,438.7,171.4,439,171.4z"/>
	<path class="st0" d="M419.9,171.4h13c0.3,0,0.5,0.2,0.5,0.5v13c0,0.3-0.2,0.5-0.5,0.5h-13c-0.3,0-0.5-0.2-0.5-0.5v-13
		C419.4,171.6,419.6,171.4,419.9,171.4z"/>
	<path class="st0" d="M400.9,171.4h13c0.3,0,0.5,0.2,0.5,0.5v13c0,0.3-0.2,0.5-0.5,0.5h-13c-0.3,0-0.5-0.2-0.5-0.5v-13
		C400.4,171.6,400.6,171.4,400.9,171.4z"/>
	<path class="st0" d="M496.1,190.5h13c0.3,0,0.5,0.2,0.5,0.5v13c0,0.3-0.2,0.5-0.5,0.5h-13c-0.3,0-0.5-0.2-0.5-0.5v-13
		C495.6,190.7,495.8,190.5,496.1,190.5z"/>
	<path class="st0" d="M477.1,190.5h13c0.3,0,0.5,0.2,0.5,0.5v13c0,0.3-0.2,0.5-0.5,0.5h-13c-0.3,0-0.5-0.2-0.5-0.5v-13
		C476.6,190.7,476.8,190.5,477.1,190.5z"/>
	<path class="st0" d="M458,190.5h13c0.3,0,0.5,0.2,0.5,0.5v13c0,0.3-0.2,0.5-0.5,0.5h-13c-0.3,0-0.5-0.2-0.5-0.5v-13
		C457.5,190.7,457.7,190.5,458,190.5z"/>
	<path class="st0" d="M439,190.5h13c0.3,0,0.5,0.2,0.5,0.5v13c0,0.3-0.2,0.5-0.5,0.5h-13c-0.3,0-0.5-0.2-0.5-0.5v-13
		C438.5,190.7,438.7,190.5,439,190.5z"/>
	<path class="st0" d="M419.9,190.5h13c0.3,0,0.5,0.2,0.5,0.5v13c0,0.3-0.2,0.5-0.5,0.5h-13c-0.3,0-0.5-0.2-0.5-0.5v-13
		C419.4,190.7,419.6,190.5,419.9,190.5z"/>
	<path class="st0" d="M400.9,190.5h13c0.3,0,0.5,0.2,0.5,0.5v13c0,0.3-0.2,0.5-0.5,0.5h-13c-0.3,0-0.5-0.2-0.5-0.5v-13
		C400.4,190.7,400.6,190.5,400.9,190.5z"/>
	<path class="st0" d="M496.1,209.5h13c0.3,0,0.5,0.2,0.5,0.5v13c0,0.3-0.2,0.5-0.5,0.5h-13c-0.3,0-0.5-0.2-0.5-0.5v-13
		C495.6,209.7,495.8,209.5,496.1,209.5z"/>
	<path class="st0" d="M477.1,209.5h13c0.3,0,0.5,0.2,0.5,0.5v13c0,0.3-0.2,0.5-0.5,0.5h-13c-0.3,0-0.5-0.2-0.5-0.5v-13
		C476.6,209.7,476.8,209.5,477.1,209.5z"/>
	<path class="st0" d="M458,209.5h13c0.3,0,0.5,0.2,0.5,0.5v13c0,0.3-0.2,0.5-0.5,0.5h-13c-0.3,0-0.5-0.2-0.5-0.5v-13
		C457.5,209.7,457.7,209.5,458,209.5z"/>
	<path class="st0" d="M439,209.5h13c0.3,0,0.5,0.2,0.5,0.5v13c0,0.3-0.2,0.5-0.5,0.5h-13c-0.3,0-0.5-0.2-0.5-0.5v-13
		C438.5,209.7,438.7,209.5,439,209.5z"/>
	<path class="st0" d="M419.9,209.5h13c0.3,0,0.5,0.2,0.5,0.5v13c0,0.3-0.2,0.5-0.5,0.5h-13c-0.3,0-0.5-0.2-0.5-0.5v-13
		C419.4,209.7,419.6,209.5,419.9,209.5z"/>
	<path class="st0" d="M400.9,209.5h13c0.3,0,0.5,0.2,0.5,0.5v13c0,0.3-0.2,0.5-0.5,0.5h-13c-0.3,0-0.5-0.2-0.5-0.5v-13
		C400.4,209.7,400.6,209.5,400.9,209.5z"/>
	<path class="st0" d="M496.1,228.6h13c0.3,0,0.5,0.2,0.5,0.5v13c0,0.3-0.2,0.5-0.5,0.5h-13c-0.3,0-0.5-0.2-0.5-0.5v-13
		C495.6,228.8,495.8,228.6,496.1,228.6z"/>
	<path class="st0" d="M477.1,228.6h13c0.3,0,0.5,0.2,0.5,0.5v13c0,0.3-0.2,0.5-0.5,0.5h-13c-0.3,0-0.5-0.2-0.5-0.5v-13
		C476.6,228.8,476.8,228.6,477.1,228.6z"/>
	<path class="st0" d="M458,228.6h13c0.3,0,0.5,0.2,0.5,0.5v13c0,0.3-0.2,0.5-0.5,0.5h-13c-0.3,0-0.5-0.2-0.5-0.5v-13
		C457.5,228.8,457.7,228.6,458,228.6z"/>
	<path class="st0" d="M439,228.6h13c0.3,0,0.5,0.2,0.5,0.5v13c0,0.3-0.2,0.5-0.5,0.5h-13c-0.3,0-0.5-0.2-0.5-0.5v-13
		C438.5,228.8,438.7,228.6,439,228.6z"/>
	<path class="st0" d="M496.1,247.6h13c0.3,0,0.5,0.2,0.5,0.5v13c0,0.3-0.2,0.5-0.5,0.5h-13c-0.3,0-0.5-0.2-0.5-0.5v-13
		C495.6,247.8,495.8,247.6,496.1,247.6z"/>
	<path class="st0" d="M477.1,247.6h13c0.3,0,0.5,0.2,0.5,0.5v13c0,0.3-0.2,0.5-0.5,0.5h-13c-0.3,0-0.5-0.2-0.5-0.5v-13
		C476.6,247.8,476.8,247.6,477.1,247.6z"/>
	<path class="st0" d="M458,247.6h13c0.3,0,0.5,0.2,0.5,0.5v13c0,0.3-0.2,0.5-0.5,0.5h-13c-0.3,0-0.5-0.2-0.5-0.5v-13
		C457.5,247.8,457.7,247.6,458,247.6z"/>
	<path class="st0" d="M439,247.6h13c0.3,0,0.5,0.2,0.5,0.5v13c0,0.3-0.2,0.5-0.5,0.5h-13c-0.3,0-0.5-0.2-0.5-0.5v-13
		C438.5,247.8,438.7,247.6,439,247.6z"/>
	<path class="st0" d="M534.2,190.5h13c0.3,0,0.5,0.2,0.5,0.5v13c0,0.3-0.2,0.5-0.5,0.5h-13c-0.3,0-0.5-0.2-0.5-0.5v-13
		C533.7,190.7,533.9,190.5,534.2,190.5z"/>
	<path class="st0" d="M534.2,209.5h13c0.3,0,0.5,0.2,0.5,0.5v13c0,0.3-0.2,0.5-0.5,0.5h-13c-0.3,0-0.5-0.2-0.5-0.5v-13
		C533.7,209.7,533.9,209.5,534.2,209.5z"/>
	<path class="st0" d="M534.2,228.6h13c0.3,0,0.5,0.2,0.5,0.5v13c0,0.3-0.2,0.5-0.5,0.5h-13c-0.3,0-0.5-0.2-0.5-0.5v-13
		C533.7,228.8,533.9,228.6,534.2,228.6z"/>
	<path class="st0" d="M534.2,247.6h13c0.3,0,0.5,0.2,0.5,0.5v13c0,0.3-0.2,0.5-0.5,0.5h-13c-0.3,0-0.5-0.2-0.5-0.5v-13
		C533.7,247.8,533.9,247.6,534.2,247.6z"/>
	<path class="st0" d="M515.2,223.5c-0.3,0-0.5-0.2-0.5-0.5l0,0v-13v-19.1c0-0.3,0.2-0.5,0.5-0.5h13c0.3,0,0.5,0.2,0.5,0.5v0.7l0,0
		h0.5c0.3,0,0.5,0.2,0.5,0.5v5.8c0,0.3-0.2,0.5-0.5,0.5h-0.5l0,0v17.1h0.5c0.3,0,0.5,0.2,0.5,0.5v5.8c0,0.3-0.2,0.5-0.5,0.5h-0.5
		l0,0v0.7c0,0.3-0.2,0.5-0.5,0.5H515.2z"/>
	<path class="st0" d="M515.2,261.7c-0.3,0-0.5-0.2-0.5-0.5l0,0v-13v-19.1c0-0.3,0.2-0.5,0.5-0.5h13c0.3,0,0.5,0.2,0.5,0.5v0.7l0,0
		h0.5c0.3,0,0.5,0.2,0.5,0.5v5.8c0,0.3-0.2,0.5-0.5,0.5h-0.5l0,0v17.1h0.5c0.3,0,0.5,0.2,0.5,0.5v5.8c0,0.3-0.2,0.5-0.5,0.5h-0.5
		l0,0v0.7c0,0.3-0.2,0.5-0.5,0.5H515.2z"/>
	<path class="st0" d="M381.8,185.5c-0.3,0-0.5-0.2-0.5-0.5l0,0v-13v-19.1c0-0.3,0.2-0.5,0.5-0.5h13c0.3,0,0.5,0.2,0.5,0.5v0.7l0,0
		h0.5c0.3,0,0.5,0.2,0.5,0.5v5.8c0,0.3-0.2,0.5-0.5,0.5h-0.5l0,0v17.1h0.5c0.3,0,0.5,0.2,0.5,0.5v5.8c0,0.3-0.2,0.5-0.5,0.5h-0.5
		l0,0v0.7c0,0.3-0.2,0.5-0.5,0.5H381.8z"/>
	<path class="st0" d="M381.8,223.5c-0.3,0-0.5-0.2-0.5-0.5l0,0v-13v-19.1c0-0.3,0.2-0.5,0.5-0.5h13c0.3,0,0.5,0.2,0.5,0.5v0.7l0,0
		h0.5c0.3,0,0.5,0.2,0.5,0.5v5.8c0,0.3-0.2,0.5-0.5,0.5h-0.5l0,0v17.1h0.5c0.3,0,0.5,0.2,0.5,0.5v5.8c0,0.3-0.2,0.5-0.5,0.5h-0.5
		l0,0v0.7c0,0.3-0.2,0.5-0.5,0.5H381.8z"/>
	<path class="st0" d="M267.6,223.6c-0.3,0-0.5-0.2-0.5-0.5l0,0v-13V191c0-0.3,0.2-0.5,0.5-0.5h13c0.3,0,0.5,0.2,0.5,0.5v0.7l0,0h0.5
		c0.3,0,0.5,0.2,0.5,0.5v5.8c0,0.3-0.2,0.5-0.5,0.5h-0.5l0,0v17.1h0.5c0.3,0,0.5,0.2,0.5,0.5v5.8c0,0.3-0.2,0.5-0.5,0.5h-0.5l0,0
		v0.7c0,0.3-0.2,0.5-0.5,0.5H267.6z"/>
	<g>
		<path class="st1" d="M263.7,131.7v131.9"/>
		<path class="st1" d="M549.5,265.1c0.8,0,1.5-0.7,1.5-1.5"/>
		<path class="st1" d="M551,131.7c0-0.8-0.7-1.5-1.5-1.5"/>
		<path class="st1" d="M263.7,263.6c0,0.8,0.7,1.5,1.5,1.5l0,0"/>
		<path class="st1" d="M265.2,130.2c-0.8,0-1.5,0.7-1.5,1.5l0,0"/>
		<path class="st1" d="M551,263.6V131.7"/>
		<path class="st1" d="M383.4,127c-0.8,0-1.5,0.7-1.5,1.5"/>
		<path class="st1" d="M394.2,128.5c0-0.8-0.7-1.5-1.5-1.5l0,0"/>
		<path class="st1" d="M394.2,128.7v-0.2"/>
		<path class="st1" d="M549.5,130.2H395.7"/>
		<path class="st1" d="M381.9,128.5v0.2"/>
		<path class="st1" d="M392.7,127h-9.3"/>
		<path class="st1" d="M380.4,130.2c0.8,0,1.5-0.7,1.5-1.5"/>
		<path class="st1" d="M380.4,130.2H265.2"/>
		<path class="st1" d="M394.2,128.7c0,0.8,0.7,1.5,1.5,1.5l0,0"/>
		<path class="st1" d="M265.2,265.1h284.3"/>
	</g>
	<path class="st0" d="M394.9,228.6h-12.7v-0.5c0-0.3-0.2-0.5-0.5-0.5h-5.8c-0.3,0-0.5,0.2-0.5,0.5v13c0,0.3,0.2,0.5,0.5,0.5h5.4v0.5
		c0,0.3,0.2,0.5,0.5,0.5h13c0.3,0,0.5-0.2,0.5-0.5v-13c0-0.3-0.2-0.5-0.5-0.5H394.9z"/>
	<path class="st0" d="M413.5,228.1v0.5H408c-0.3,0-0.5,0.2-0.5,0.5v13c0,0.3,0.2,0.5,0.5,0.5h13c0.3,0,0.5-0.2,0.5-0.5v-13
		c0-0.3-0.2-0.5-0.5-0.5h-0.7v-0.5c0-0.3-0.2-0.5-0.5-0.5H414C413.7,227.6,413.5,227.8,413.5,228.1z"/>
	<path class="st0" d="M429.3,241.6h-5.8c-0.3,0-0.5-0.2-0.5-0.5v-13c0-0.3,0.2-0.5,0.5-0.5h5.8c0.3,0,0.5,0.2,0.5,0.5v13
		C429.8,241.4,429.6,241.6,429.3,241.6z"/>
	<path class="st0" d="M405.5,241.6h-5.8c-0.3,0-0.5-0.2-0.5-0.5v-13c0-0.3,0.2-0.5,0.5-0.5h5.8c0.3,0,0.5,0.2,0.5,0.5v13
		C406,241.4,405.8,241.6,405.5,241.6z"/>
	<path class="st0" d="M373.9,229.1c0-0.3-0.2-0.5-0.5-0.5h-12.8h12.8C373.7,228.6,373.9,228.8,373.9,229.1v13c0,0.3-0.2,0.5-0.5,0.5
		h-13c-0.3,0-0.5-0.2-0.5-0.5v-0.5h-7.8c-0.3,0-0.5-0.2-0.5-0.5v-13c0-0.3,0.2-0.5,0.5-0.5h8c0.3,0,0.5,0.2,0.5,0.5v0.5"/>
</g>
</svg>
