<?xml version="1.0" encoding="utf-8"?>
<!-- Generator: Adobe Illustrator 27.8.1, SVG Export Plug-In . SVG Version: 6.00 Build 0)  -->
<svg version="1.1" id="Layer_1" xmlns:svg="http://www.w3.org/2000/svg"
	 xmlns="http://www.w3.org/2000/svg" xmlns:xlink="http://www.w3.org/1999/xlink" x="0px" y="0px" viewBox="0 0 1190.5 841.9"
	 style="enable-background:new 0 0 1190.5 841.9;" xml:space="preserve">
<style type="text/css">
	
		.st0{fill:#2F2D31;fill-opacity:0;stroke:#2F2D31;stroke-width:0.5669;stroke-linecap:round;stroke-linejoin:round;stroke-miterlimit:11.3386;}
	
		.st1{fill:#2F2D31;fill-opacity:0;stroke:#2F2D31;stroke-width:0.1417;stroke-linecap:round;stroke-linejoin:round;stroke-miterlimit:11.3386;}
</style>
<g transform="translate(0 0) scale(1 1)">
</g>
<g>
	<path class="st0" d="M512.6,189.2c-2.3,0-4.3,2-4.3,4.3"/>
	<path class="st0" d="M543.2,193.4c0-2.3-2-4.3-4.3-4.3"/>
	<path class="st0" d="M543.2,194c0,2.3,2,4.3,4.3,4.3"/>
	<path class="st0" d="M504.1,198.2c2.3,0,4.3-2,4.3-4.3"/>
	<path class="st0" d="M508.3,193.4v0.6"/>
	<path class="st0" d="M543.2,194v-0.6"/>
	<path class="st0" d="M538.9,189.2h-26.4"/>
</g>
<g>
	<path class="st1" d="M922.8,462.9H886"/>
	<path class="st1" d="M292.1,369.2h36.9"/>
	<path class="st1" d="M884.6,478.6c0-0.9,0.6-1.4,1.4-1.4"/>
	<path class="st1" d="M452.6,316.6c0-0.9,0.6-1.4,1.4-1.4"/>
	<path class="st1" d="M549.1,441.6v16.4"/>
	<path class="st1" d="M940,207.2h36.9"/>
	<path class="st1" d="M290.6,208.6c0-0.9,0.6-1.4,1.4-1.4"/>
	<path class="st1" d="M868.8,354.8H832"/>
	<path class="st1" d="M445.9,515.4c0,0.9,0.6,1.4,1.4,1.4"/>
	<path class="st1" d="M508,369.1h36.9"/>
	<path class="st1" d="M400,369.2h36.9"/>
	<path class="st1" d="M598.9,462.8H562"/>
	<path class="st1" d="M762.3,370.6v36.9"/>
	<path class="st1" d="M452.6,461.4v-36.9"/>
	<path class="st1" d="M868.8,516.8H832"/>
	<path class="st1" d="M398.6,208.6c0-0.9,0.6-1.4,1.4-1.4"/>
	<path class="st1" d="M978.2,424.6v36.9"/>
	<path class="st1" d="M762.3,424.6v36.9"/>
	<path class="st1" d="M546.3,459.5v2"/>
	<path class="st1" d="M722.6,461.4v-36.9"/>
	<path class="st1" d="M384.3,299.4c0,0.9-0.6,1.4-1.4,1.4"/>
	<path class="st1" d="M575.1,514h-16.4"/>
	<path class="st1" d="M868.8,423.1c0.9,0,1.4,0.6,1.4,1.4"/>
	<path class="st1" d="M506.5,245.4v-36.9"/>
	<path class="st1" d="M870.3,424.6v36.9"/>
	<path class="st1" d="M884.6,569.6v-36.9"/>
	<path class="st1" d="M778,300.9c-0.9,0-1.4-0.6-1.4-1.4"/>
	<path class="st1" d="M546.3,478.6c0-0.9-0.6-1.4-1.4-1.4"/>
	<path class="st1" d="M225.2,390.4c0,0.9-0.6,1.4-1.4,1.4"/>
	<path class="st1" d="M506.5,208.6c0-0.9,0.6-1.4,1.4-1.4"/>
	<path class="st1" d="M220.9,570.8h-36.9"/>
	<path class="st1" d="M236.6,353.4v-36.9"/>
	<path class="st1" d="M976.8,570.8H940"/>
	<path class="st1" d="M490.9,261.2c0.9,0,1.4,0.6,1.4,1.4"/>
	<path class="st1" d="M832,477.1h36.9"/>
	<path class="st1" d="M644.1,512.6c0,0.9-0.6,1.4-1.4,1.4"/>
	<path class="st1" d="M549.1,390.3c0,0.9-0.6,1.4-1.4,1.4"/>
	<path class="st1" d="M506.6,316.7v-54.1"/>
	<path class="st1" d="M708.3,532.6v36.9"/>
	<path class="st1" d="M238.1,477.1h36.9"/>
	<path class="st1" d="M654.3,299.4c0,0.9-0.6,1.4-1.4,1.4"/>
	<path class="st1" d="M346,369.2h36.9"/>
	<path class="st1" d="M546.3,283.8v48.5"/>
	<path class="st1" d="M400,462.8c-0.9,0-1.4-0.6-1.4-1.4"/>
	<path class="st1" d="M220.9,246.9h-36.9"/>
	<path class="st1" d="M886,261.2h36.9"/>
	<path class="st1" d="M454,246.9c-0.9,0-1.4-0.6-1.4-1.4"/>
	<path class="st1" d="M884.6,299.4v-36.9"/>
	<path class="st1" d="M708.3,245.4c0,0.9-0.6,1.4-1.4,1.4"/>
	<path class="st1" d="M978.2,407.4c0,0.9-0.6,1.4-1.4,1.4"/>
	<path class="st1" d="M344.6,370.6c0-0.9,0.6-1.4,1.4-1.4"/>
	<path class="st1" d="M652.9,261.2c0.9,0,1.4,0.6,1.4,1.4"/>
	<path class="st1" d="M778,246.9c-0.9,0-1.4-0.6-1.4-1.4"/>
	<path class="st1" d="M978.2,370.6v36.9"/>
	<path class="st1" d="M816.3,407.4c0,0.9-0.6,1.4-1.4,1.4"/>
	<path class="st1" d="M436.9,423.1c0.9,0,1.4,0.6,1.4,1.4"/>
	<path class="st1" d="M706.9,246.9H670"/>
	<path class="st1" d="M508,516.8h36.9"/>
	<path class="st1" d="M814.8,261.2c0.9,0,1.4,0.6,1.4,1.4"/>
	<path class="st1" d="M346,462.8c-0.9,0-1.4-0.6-1.4-1.4"/>
	<path class="st1" d="M184.1,207.2h36.9"/>
	<path class="st1" d="M922.8,354.8H886"/>
	<path class="st1" d="M832,300.9c-0.9,0-1.4-0.6-1.4-1.4"/>
	<path class="st1" d="M614.6,424.6c0-0.9,0.6-1.4,1.4-1.4"/>
	<path class="st1" d="M616,246.9c-0.9,0-1.4-0.6-1.4-1.4"/>
	<path class="st1" d="M182.7,262.6c0-0.9,0.6-1.4,1.4-1.4"/>
	<path class="st1" d="M976.8,246.9H940"/>
	<path class="st1" d="M332.6,531.1h36.9"/>
	<path class="st1" d="M938.6,208.6c0-0.9,0.6-1.4,1.4-1.4"/>
	<path class="st1" d="M814.8,315.2c0.9,0,1.4,0.6,1.4,1.4"/>
	<path class="st1" d="M182.7,370.6c0-0.9,0.6-1.4,1.4-1.4"/>
	<path class="st1" d="M706.9,207.2c0.9,0,1.4,0.6,1.4,1.4"/>
	<path class="st1" d="M598.9,354.8H562"/>
	<path class="st1" d="M344.6,478.6c0-0.9,0.6-1.4,1.4-1.4"/>
	<path class="st1" d="M724,261.2h36.9"/>
	<path class="st1" d="M330.3,208.6v36.9"/>
	<path class="st1" d="M670,261.2h36.9"/>
	<path class="st1" d="M236.6,407.4v-36.9"/>
	<path class="st1" d="M575.1,474.3c0.9,0,1.4,0.6,1.4,1.4"/>
	<path class="st1" d="M484.2,477.1c0.9,0,1.4,0.6,1.4,1.4"/>
	<path class="st1" d="M547.7,332.3c0.9,0,1.4,0.6,1.4,1.4"/>
	<path class="st1" d="M490.9,462.8H454"/>
	<path class="st1" d="M938.6,353.4v-36.9"/>
	<path class="st1" d="M776.6,262.6c0-0.9,0.6-1.4,1.4-1.4"/>
	<path class="st1" d="M706.9,261.2c0.9,0,1.4,0.6,1.4,1.4"/>
	<path class="st1" d="M778,354.8c-0.9,0-1.4-0.6-1.4-1.4"/>
	<path class="st1" d="M870.3,370.6v36.9"/>
	<path class="st1" d="M382.9,516.8H346"/>
	<path class="st1" d="M724,570.8c-0.9,0-1.4-0.6-1.4-1.4"/>
	<path class="st1" d="M222.3,262.6v36.9"/>
	<path class="st1" d="M832,408.8c-0.9,0-1.4-0.6-1.4-1.4"/>
	<path class="st1" d="M884.6,245.4v-36.9"/>
	<path class="st1" d="M830.6,316.6c0-0.9,0.6-1.4,1.4-1.4"/>
	<path class="st1" d="M292.1,408.8c-0.9,0-1.4-0.6-1.4-1.4"/>
	<path class="st1" d="M830.6,461.4v-36.9"/>
	<path class="st1" d="M274.9,423.1c0.9,0,1.4,0.6,1.4,1.4"/>
	<path class="st1" d="M830.6,424.6c0-0.9,0.6-1.4,1.4-1.4"/>
	<path class="st1" d="M549.1,373.9v16.4"/>
	<path class="st1" d="M274.9,354.8h-36.9"/>
	<path class="st1" d="M598.9,423.1c0.9,0,1.4,0.6,1.4,1.4"/>
	<path class="st1" d="M238.1,315.2h36.9"/>
	<path class="st1" d="M832,462.8c-0.9,0-1.4-0.6-1.4-1.4"/>
	<path class="st1" d="M290.6,478.6c0-0.9,0.6-1.4,1.4-1.4"/>
	<path class="st1" d="M722.6,208.6c0-0.9,0.6-1.4,1.4-1.4"/>
	<path class="st1" d="M706.9,369.2c0.9,0,1.4,0.6,1.4,1.4"/>
	<path class="st1" d="M978.2,208.6v36.9"/>
	<path class="st1" d="M330.3,245.4c0,0.9-0.6,1.4-1.4,1.4"/>
	<path class="st1" d="M331.1,569.4v-36.9"/>
	<path class="st1" d="M238.1,408.8c-0.9,0-1.4-0.6-1.4-1.4"/>
	<path class="st1" d="M600.3,262.6v36.9"/>
	<path class="st1" d="M927.1,441.6v16.4"/>
	<path class="st1" d="M938.6,316.6c0-0.9,0.6-1.4,1.4-1.4"/>
	<path class="st1" d="M830.6,407.4v-36.9"/>
	<path class="st1" d="M328.9,408.8h-36.9"/>
	<path class="st1" d="M814.8,516.8H778"/>
	<path class="st1" d="M222.3,208.6v36.9"/>
	<path class="st1" d="M600.3,299.4c0,0.9-0.6,1.4-1.4,1.4"/>
	<path class="st1" d="M400,207.2h36.9"/>
	<path class="st1" d="M760.9,408.8H724"/>
	<path class="st1" d="M760.9,531.1c0.9,0,1.4,0.6,1.4,1.4"/>
	<path class="st1" d="M184.1,463c-0.9,0-1.4-0.6-1.4-1.4"/>
	<path class="st1" d="M384.3,515.4c0,0.9-0.6,1.4-1.4,1.4"/>
	<path class="st1" d="M546.3,515.4v-36.9"/>
	<path class="st1" d="M222.3,353.4c0,0.9-0.6,1.4-1.4,1.4"/>
	<path class="st1" d="M220.9,463h-36.9"/>
	<path class="st1" d="M382.9,261.2c0.9,0,1.4,0.6,1.4,1.4"/>
	<path class="st1" d="M976.8,315.2c0.9,0,1.4,0.6,1.4,1.4"/>
	<path class="st1" d="M384.3,461.4c0,0.9-0.6,1.4-1.4,1.4"/>
	<path class="st1" d="M398.6,461.4v-36.9"/>
	<path class="st1" d="M927.1,373.9v16.4"/>
	<path class="st1" d="M760.9,246.9H724"/>
	<path class="st1" d="M600.3,461.4c0,0.9-0.6,1.4-1.4,1.4"/>
	<path class="st1" d="M490.9,369.2c0.9,0,1.4,0.6,1.4,1.4"/>
	<path class="st1" d="M922.8,246.9H886"/>
	<path class="st1" d="M616,423.1h36.9"/>
	<path class="st1" d="M778,423.1h36.9"/>
	<path class="st1" d="M870.3,515.4c0,0.9-0.6,1.4-1.4,1.4"/>
	<path class="st1" d="M400,354.8c-0.9,0-1.4-0.6-1.4-1.4"/>
	<path class="st1" d="M290.6,316.6c0-0.9,0.6-1.4,1.4-1.4"/>
	<path class="st1" d="M328.9,516.8h-36.9"/>
	<path class="st1" d="M445.9,514v1.4"/>
	<path class="st1" d="M547.7,459.5h-1.4"/>
	<path class="st1" d="M452.6,353.4v-36.9"/>
	<path class="st1" d="M924.3,440.2h1.4"/>
</g>
<g>
	<path class="st0" d="M987.6,202.5c0-2.3-2-4.3-4.3-4.3"/>
</g>
<g>
	<path class="st1" d="M492.3,245.4c0,0.9-0.6,1.4-1.4,1.4"/>
	<path class="st1" d="M778,315.2h36.9"/>
	<path class="st1" d="M776.6,407.4v-36.9"/>
	<path class="st1" d="M384.3,262.6v36.9"/>
	<path class="st1" d="M830.6,478.6c0-0.9,0.6-1.4,1.4-1.4"/>
	<path class="st1" d="M722.6,245.4v-36.9"/>
	<path class="st1" d="M978.2,569.4c0,0.9-0.6,1.4-1.4,1.4"/>
	<path class="st1" d="M600.3,245.4c0,0.9-0.6,1.4-1.4,1.4"/>
	<path class="st1" d="M816.3,299.4c0,0.9-0.6,1.4-1.4,1.4"/>
	<path class="st1" d="M814.8,477.1c0.9,0,1.4,0.6,1.4,1.4"/>
	<path class="st1" d="M670,408.8c-0.9,0-1.4-0.6-1.4-1.4"/>
	<path class="st1" d="M830.6,370.6c0-0.9,0.6-1.4,1.4-1.4"/>
	<path class="st1" d="M492.3,424.6v36.9"/>
	<path class="st1" d="M546.3,353.6c0,0.9-0.6,1.4-1.4,1.4"/>
	<path class="st1" d="M330.3,478.6v36.9"/>
	<path class="st1" d="M276.3,515.4c0,0.9-0.6,1.4-1.4,1.4"/>
	<path class="st1" d="M870.3,316.6v36.9"/>
	<path class="st1" d="M814.8,570.8H778"/>
	<path class="st1" d="M706.9,408.8H670"/>
	<path class="st1" d="M492.3,262.6v36.9"/>
	<path class="st1" d="M925.7,480.5c0.9,0,1.4,0.6,1.4,1.4"/>
	<path class="st1" d="M978.2,262.6v36.9"/>
	<path class="st1" d="M328.9,315.2c0.9,0,1.4,0.6,1.4,1.4"/>
	<path class="st1" d="M886,477.1h36.9"/>
	<path class="st1" d="M760.9,423.1c0.9,0,1.4,0.6,1.4,1.4"/>
	<path class="st1" d="M814.8,423.1c0.9,0,1.4,0.6,1.4,1.4"/>
	<path class="st1" d="M562,315.2h36.9"/>
	<path class="st1" d="M276.3,245.4c0,0.9-0.6,1.4-1.4,1.4"/>
	<path class="st1" d="M560.6,461.4v-36.9"/>
	<path class="st1" d="M328.9,246.9h-36.9"/>
	<path class="st1" d="M236.6,299.4v-36.9"/>
	<path class="st1" d="M238.1,300.9c-0.9,0-1.4-0.6-1.4-1.4"/>
	<path class="st1" d="M184.1,516.8c-0.9,0-1.4-0.6-1.4-1.4"/>
	<path class="st1" d="M976.8,369.2c0.9,0,1.4,0.6,1.4,1.4"/>
	<path class="st1" d="M344.6,515.4v-36.9"/>
	<path class="st1" d="M220.9,300.9h-36.9"/>
	<path class="st1" d="M560.6,407.4v-36.9"/>
	<path class="st1" d="M616,408.8c-0.9,0-1.4-0.6-1.4-1.4"/>
	<path class="st1" d="M346,300.9c-0.9,0-1.4-0.6-1.4-1.4"/>
	<path class="st1" d="M544.9,516.8c0.9,0,1.4-0.6,1.4-1.4"/>
	<path class="st1" d="M925.7,567.6h-1.4"/>
	<path class="st1" d="M870.3,245.4c0,0.9-0.6,1.4-1.4,1.4"/>
	<path class="st1" d="M290.6,424.6c0-0.9,0.6-1.4,1.4-1.4"/>
	<path class="st1" d="M870.3,407.4c0,0.9-0.6,1.4-1.4,1.4"/>
	<path class="st1" d="M668.6,424.6c0-0.9,0.6-1.4,1.4-1.4"/>
	<path class="st1" d="M978.2,353.4c0,0.9-0.6,1.4-1.4,1.4"/>
	<path class="st1" d="M506.6,514v1.4"/>
	<path class="st1" d="M922.8,477.1c0.9,0,1.4,0.6,1.4,1.4"/>
	<path class="st1" d="M924.2,299.4c0,0.9-0.6,1.4-1.4,1.4"/>
	<path class="st1" d="M938.6,569.4v-36.9"/>
	<path class="st1" d="M560.6,245.4v-36.9"/>
	<path class="st1" d="M978.2,532.6v36.9"/>
	<path class="st1" d="M976.8,354.8H940"/>
	<path class="st1" d="M274.9,462.8h-36.9"/>
	<path class="st1" d="M382.9,315.2c0.9,0,1.4,0.6,1.4,1.4"/>
	<path class="st1" d="M492.3,316.6v36.9"/>
	<path class="st1" d="M506.6,424.6v-54.1"/>
	<path class="st1" d="M225.2,374v16.4"/>
	<path class="st1" d="M238.1,423.1h36.9"/>
	<path class="st1" d="M344.6,208.6c0-0.9,0.6-1.4,1.4-1.4"/>
	<path class="st1" d="M652.9,207.2c0.9,0,1.4,0.6,1.4,1.4"/>
	<path class="st1" d="M222.3,245.4c0,0.9-0.6,1.4-1.4,1.4"/>
	<path class="st1" d="M668.6,353.4v-36.9"/>
	<path class="st1" d="M706.9,516.8H670"/>
	<path class="st1" d="M454,369.2h36.9"/>
	<path class="st1" d="M938.6,478.6c0-0.9,0.6-1.4,1.4-1.4"/>
	<path class="st1" d="M546.3,262.6v2"/>
	<path class="st1" d="M938.6,407.4v-36.9"/>
	<path class="st1" d="M760.9,369.2c0.9,0,1.4,0.6,1.4,1.4"/>
	<path class="st1" d="M274.9,477.1c0.9,0,1.4,0.6,1.4,1.4"/>
	<path class="st1" d="M184.1,246.9c-0.9,0-1.4-0.6-1.4-1.4"/>
	<path class="st1" d="M668.6,569.4v-36.9"/>
	<path class="st1" d="M884.6,208.6c0-0.9,0.6-1.4,1.4-1.4"/>
	<path class="st1" d="M616,207.2h36.9"/>
	<path class="st1" d="M438.3,424.6v36.9"/>
	<path class="st1" d="M290.6,407.4v-36.9"/>
	<path class="st1" d="M436.9,354.8H400"/>
	<path class="st1" d="M251.6,531.1h36.9"/>
	<path class="st1" d="M760.9,570.8H724"/>
	<path class="st1" d="M346,408.8c-0.9,0-1.4-0.6-1.4-1.4"/>
	<path class="st1" d="M238.1,261.2h36.9"/>
	<path class="st1" d="M422.4,512.6c0,0.9,0.6,1.4,1.4,1.4"/>
	<path class="st1" d="M276.3,262.6v36.9"/>
	<path class="st1" d="M925.7,499.8h-1.4"/>
	<path class="st1" d="M616,315.2h36.9"/>
	<path class="st1" d="M544.9,462.9H508"/>
	<path class="st1" d="M614.6,299.4v-36.9"/>
	<path class="st1" d="M722.6,353.4v-36.9"/>
	<path class="st1" d="M220.9,531.1c0.9,0,1.4,0.6,1.4,1.4"/>
	<path class="st1" d="M546.3,440.2h1.4"/>
	<path class="st1" d="M619.1,516.8c0.9,0,1.4-0.6,1.4-1.4"/>
	<path class="st1" d="M328.9,477.1c0.9,0,1.4,0.6,1.4,1.4"/>
	<path class="st1" d="M346,315.2h36.9"/>
	<path class="st1" d="M724,477.1h36.9"/>
	<path class="st1" d="M925.7,391.8h-1.4"/>
	<path class="st1" d="M598.9,315.2c0.9,0,1.4,0.6,1.4,1.4"/>
	<path class="st1" d="M382.9,462.8H346"/>
	<path class="st1" d="M346,246.9c-0.9,0-1.4-0.6-1.4-1.4"/>
	<path class="st1" d="M489.9,475.7v36.9"/>
	<path class="st1" d="M562,462.8c-0.9,0-1.4-0.6-1.4-1.4"/>
	<path class="st1" d="M976.8,408.8H940"/>
	<path class="st1" d="M222.3,370.6v2"/>
	<path class="st1" d="M222.3,372.6h1.4"/>
	<path class="st1" d="M668.6,461.4v-36.9"/>
	<path class="st1" d="M884.6,532.7v-54.1"/>
	<path class="st1" d="M492.3,407.4c0,0.9-0.6,1.4-1.4,1.4"/>
	<path class="st1" d="M236.6,478.6c0-0.9,0.6-1.4,1.4-1.4"/>
	<path class="st1" d="M599.3,474.3c-0.9,0-1.4,0.6-1.4,1.4"/>
	<path class="st1" d="M384.3,370.6v36.9"/>
	<path class="st1" d="M868.8,315.2c0.9,0,1.4,0.6,1.4,1.4"/>
	<path class="st1" d="M670,246.9c-0.9,0-1.4-0.6-1.4-1.4"/>
	<path class="st1" d="M670,462.8c-0.9,0-1.4-0.6-1.4-1.4"/>
	<path class="st1" d="M776.6,245.4v-36.9"/>
	<path class="st1" d="M290.6,370.6c0-0.9,0.6-1.4,1.4-1.4"/>
	<path class="st1" d="M250.1,532.6c0-0.9,0.6-1.4,1.4-1.4"/>
	<path class="st1" d="M652.9,369.2c0.9,0,1.4,0.6,1.4,1.4"/>
	<path class="st1" d="M508,462.9c-0.9,0-1.4-0.6-1.4-1.4"/>
	<path class="st1" d="M976.8,462.8H940"/>
	<path class="st1" d="M816.3,316.6v36.9"/>
	<path class="st1" d="M580.9,478.6v36.9"/>
	<path class="st1" d="M384.3,245.4c0,0.9-0.6,1.4-1.4,1.4"/>
	<path class="st1" d="M454,300.9c-0.9,0-1.4-0.6-1.4-1.4"/>
	<path class="st1" d="M492.3,353.4c0,0.9-0.6,1.4-1.4,1.4"/>
	<path class="st1" d="M562,261.2h36.9"/>
	<path class="st1" d="M560.6,370.6c0-0.9,0.6-1.4,1.4-1.4"/>
	<path class="st1" d="M274.9,516.8h-36.9"/>
	<path class="st1" d="M616,369.2h36.9"/>
	<path class="st1" d="M722.6,478.6c0-0.9,0.6-1.4,1.4-1.4"/>
	<path class="st1" d="M454,354.8c-0.9,0-1.4-0.6-1.4-1.4"/>
	<path class="st1" d="M938.6,424.6c0-0.9,0.6-1.4,1.4-1.4"/>
	<path class="st1" d="M708.3,208.6v36.9"/>
	<path class="st1" d="M924.3,548.3h1.4"/>
	<path class="st1" d="M668.6,316.6c0-0.9,0.6-1.4,1.4-1.4"/>
	<path class="st1" d="M346,207.2h36.9"/>
	<path class="st1" d="M814.8,207.2c0.9,0,1.4,0.6,1.4,1.4"/>
	<path class="st1" d="M776.6,370.6c0-0.9,0.6-1.4,1.4-1.4"/>
	<path class="st1" d="M816.3,515.4c0,0.9-0.6,1.4-1.4,1.4"/>
	<path class="st1" d="M670,570.8c-0.9,0-1.4-0.6-1.4-1.4"/>
	<path class="st1" d="M560.6,299.4v-36.9"/>
	<path class="st1" d="M724,246.9c-0.9,0-1.4-0.6-1.4-1.4"/>
	<path class="st1" d="M924.3,478.6v2"/>
	<path class="st1" d="M868.8,300.9H832"/>
	<path class="st1" d="M438.3,262.6v36.9"/>
	<path class="st1" d="M292.1,315.2h36.9"/>
	<path class="st1" d="M654.3,316.6v36.9"/>
	<path class="st1" d="M614.6,370.6c0-0.9,0.6-1.4,1.4-1.4"/>
	<path class="st1" d="M398.6,353.4v-36.9"/>
</g>
<g>
	<path class="st0" d="M987.6,576.4V202.5"/>
</g>
<g>
	<path class="st1" d="M762.3,353.4c0,0.9-0.6,1.4-1.4,1.4"/>
	<path class="st1" d="M330.3,370.6v36.9"/>
	<path class="st1" d="M868.8,462.8H832"/>
	<path class="st1" d="M706.9,462.8H670"/>
	<path class="st1" d="M436.9,261.2c0.9,0,1.4,0.6,1.4,1.4"/>
	<path class="st1" d="M597.9,477.1h-15.6"/>
	<path class="st1" d="M546.3,351.6v2"/>
	<path class="st1" d="M884.6,461.5v-36.9"/>
	<path class="st1" d="M560.6,262.6c0-0.9,0.6-1.4,1.4-1.4"/>
	<path class="st1" d="M976.8,261.2c0.9,0,1.4,0.6,1.4,1.4"/>
	<path class="st1" d="M289.8,532.6v36.9"/>
	<path class="st1" d="M436.9,207.2c0.9,0,1.4,0.6,1.4,1.4"/>
	<path class="st1" d="M814.8,531.1c0.9,0,1.4,0.6,1.4,1.4"/>
	<path class="st1" d="M562,300.9c-0.9,0-1.4-0.6-1.4-1.4"/>
	<path class="st1" d="M507.9,246.9c-0.9,0-1.4-0.6-1.4-1.4"/>
	<path class="st1" d="M238.1,246.9c-0.9,0-1.4-0.6-1.4-1.4"/>
	<path class="st1" d="M670,531.1h36.9"/>
	<path class="st1" d="M346,516.8c-0.9,0-1.4-0.6-1.4-1.4"/>
	<path class="st1" d="M616,462.8c-0.9,0-1.4-0.6-1.4-1.4"/>
	<path class="st1" d="M238.1,462.8c-0.9,0-1.4-0.6-1.4-1.4"/>
	<path class="st1" d="M924.3,459.5v2"/>
	<path class="st1" d="M762.3,407.4c0,0.9-0.6,1.4-1.4,1.4"/>
	<path class="st1" d="M182.7,478.6c0-0.9,0.6-1.4,1.4-1.4"/>
	<path class="st1" d="M617.1,475.7c0-0.9-0.6-1.4-1.4-1.4"/>
	<path class="st1" d="M830.6,262.6c0-0.9,0.6-1.4,1.4-1.4"/>
	<path class="st1" d="M868.8,570.8H832"/>
	<path class="st1" d="M182.7,353.4v-36.9"/>
	<path class="st1" d="M400,261.2h36.9"/>
	<path class="st1" d="M222.3,461.6c0,0.9-0.6,1.4-1.4,1.4"/>
	<path class="st1" d="M598.9,300.9H562"/>
	<path class="st1" d="M382.9,369.2c0.9,0,1.4,0.6,1.4,1.4"/>
	<path class="st1" d="M708.3,569.4c0,0.9-0.6,1.4-1.4,1.4"/>
	<path class="st1" d="M830.6,299.4v-36.9"/>
	<path class="st1" d="M670,477.1h36.9"/>
	<path class="st1" d="M762.3,245.4c0,0.9-0.6,1.4-1.4,1.4"/>
	<path class="st1" d="M597.9,475.7v1.4"/>
	<path class="st1" d="M626.2,514c-0.9,0-1.4-0.6-1.4-1.4"/>
	<path class="st1" d="M886,246.9c-0.9,0-1.4-0.6-1.4-1.4"/>
</g>
<g>
	<path class="st0" d="M983.4,198.2h-436"/>
	<path class="st0" d="M983.4,580.6c2.3,0,4.3-2,4.3-4.3"/>
</g>
<g>
	<path class="st1" d="M344.6,262.6c0-0.9,0.6-1.4,1.4-1.4"/>
	<path class="st1" d="M236.6,424.6c0-0.9,0.6-1.4,1.4-1.4"/>
	<path class="st1" d="M492.3,208.6v36.9"/>
	<path class="st1" d="M370.8,569.4c0,0.9-0.6,1.4-1.4,1.4"/>
	<path class="st1" d="M708.3,316.6v36.9"/>
	<path class="st1" d="M560.6,316.6c0-0.9,0.6-1.4,1.4-1.4"/>
	<path class="st1" d="M814.8,300.9H778"/>
	<path class="st1" d="M776.6,299.4v-36.9"/>
	<path class="st1" d="M290.6,245.4v-36.9"/>
	<path class="st1" d="M614.6,208.6c0-0.9,0.6-1.4,1.4-1.4"/>
	<path class="st1" d="M600.3,370.6v36.9"/>
	<path class="st1" d="M222.3,532.6v36.9"/>
	<path class="st1" d="M762.3,569.4c0,0.9-0.6,1.4-1.4,1.4"/>
	<path class="st1" d="M722.6,424.6c0-0.9,0.6-1.4,1.4-1.4"/>
	<path class="st1" d="M922.8,369.1c0.9,0,1.4,0.6,1.4,1.4"/>
	<path class="st1" d="M762.3,316.6v36.9"/>
	<path class="st1" d="M642.7,474.3c0.9,0,1.4,0.6,1.4,1.4"/>
	<path class="st1" d="M452.6,208.6c0-0.9,0.6-1.4,1.4-1.4"/>
	<path class="st1" d="M978.2,515.4c0,0.9-0.6,1.4-1.4,1.4"/>
	<path class="st1" d="M724,516.8c-0.9,0-1.4-0.6-1.4-1.4"/>
	<path class="st1" d="M250.1,569.4v-36.9"/>
	<path class="st1" d="M382.9,246.9H346"/>
	<path class="st1" d="M884.6,353.4v-36.9"/>
	<path class="st1" d="M614.6,407.4v-36.9"/>
	<path class="st1" d="M344.6,353.4v-36.9"/>
	<path class="st1" d="M236.6,208.6c0-0.9,0.6-1.4,1.4-1.4"/>
	<path class="st1" d="M778,570.8c-0.9,0-1.4-0.6-1.4-1.4"/>
	<path class="st1" d="M549.1,458.1c0,0.9-0.6,1.4-1.4,1.4"/>
	<path class="st1" d="M384.3,424.6v36.9"/>
	<path class="st1" d="M778,477.1h36.9"/>
	<path class="st1" d="M292.1,300.9c-0.9,0-1.4-0.6-1.4-1.4"/>
	<path class="st1" d="M288.4,531.1c0.9,0,1.4,0.6,1.4,1.4"/>
	<path class="st1" d="M708.3,461.4c0,0.9-0.6,1.4-1.4,1.4"/>
	<path class="st1" d="M452.6,407.4v-36.9"/>
	<path class="st1" d="M654.3,461.4c0,0.9-0.6,1.4-1.4,1.4"/>
	<path class="st1" d="M778,369.2h36.9"/>
	<path class="st1" d="M507.7,474.3h-16.4"/>
	<path class="st1" d="M544.9,477.1h-35.7"/>
	<path class="st1" d="M382.9,300.9H346"/>
	<path class="st1" d="M292.1,516.8c-0.9,0-1.4-0.6-1.4-1.4"/>
	<path class="st1" d="M558.7,474.3h16.4"/>
	<path class="st1" d="M447.9,477.1v-1.4"/>
	<path class="st1" d="M724,369.2h36.9"/>
	<path class="st1" d="M978.2,299.4c0,0.9-0.6,1.4-1.4,1.4"/>
	<path class="st1" d="M668.6,370.6c0-0.9,0.6-1.4,1.4-1.4"/>
	<path class="st1" d="M438.3,245.4c0,0.9-0.6,1.4-1.4,1.4"/>
	<path class="st1" d="M182.7,316.6c0-0.9,0.6-1.4,1.4-1.4"/>
	<path class="st1" d="M670,369.2h36.9"/>
	<path class="st1" d="M274.9,369.2c0.9,0,1.4,0.6,1.4,1.4"/>
	<path class="st1" d="M722.6,316.6c0-0.9,0.6-1.4,1.4-1.4"/>
	<path class="st1" d="M436.9,408.8H400"/>
	<path class="st1" d="M924.3,499.8v48.5"/>
	<path class="st1" d="M886,462.9c-0.9,0-1.4-0.6-1.4-1.4"/>
	<path class="st1" d="M654.3,407.4c0,0.9-0.6,1.4-1.4,1.4"/>
	<path class="st1" d="M492.3,299.4c0,0.9-0.6,1.4-1.4,1.4"/>
	<path class="st1" d="M489.9,512.6c0,0.9,0.6,1.4,1.4,1.4"/>
	<path class="st1" d="M290.6,353.4v-36.9"/>
	<path class="st1" d="M778,516.8c-0.9,0-1.4-0.6-1.4-1.4"/>
	<path class="st1" d="M547.7,351.6h-1.4"/>
	<path class="st1" d="M506.6,370.5c0-0.9,0.6-1.4,1.4-1.4"/>
	<path class="st1" d="M652.9,300.9H616"/>
	<path class="st1" d="M927.1,390.3c0,0.9-0.6,1.4-1.4,1.4"/>
	<path class="st1" d="M398.6,316.6c0-0.9,0.6-1.4,1.4-1.4"/>
	<path class="st1" d="M184.1,477.1h36.9"/>
	<path class="st1" d="M832,315.2h36.9"/>
	<path class="st1" d="M762.3,478.6v36.9"/>
	<path class="st1" d="M330.3,299.4c0,0.9-0.6,1.4-1.4,1.4"/>
	<path class="st1" d="M452.6,424.6c0-0.9,0.6-1.4,1.4-1.4"/>
	<path class="st1" d="M924.3,461.5c0,0.9-0.6,1.4-1.4,1.4"/>
	<path class="st1" d="M492.3,370.6v36.9"/>
	<path class="st1" d="M614.6,461.4v-36.9"/>
	<path class="st1" d="M832,261.2h36.9"/>
	<path class="st1" d="M330.3,353.4c0,0.9-0.6,1.4-1.4,1.4"/>
	<path class="st1" d="M184.1,531.1h36.9"/>
	<path class="st1" d="M830.6,245.4v-36.9"/>
	<path class="st1" d="M832,516.8c-0.9,0-1.4-0.6-1.4-1.4"/>
	<path class="st1" d="M562,423.1h36.9"/>
	<path class="st1" d="M776.6,208.6c0-0.9,0.6-1.4,1.4-1.4"/>
	<path class="st1" d="M274.9,261.2c0.9,0,1.4,0.6,1.4,1.4"/>
	<path class="st1" d="M884.6,262.6c0-0.9,0.6-1.4,1.4-1.4"/>
	<path class="st1" d="M868.8,369.2c0.9,0,1.4,0.6,1.4,1.4"/>
	<path class="st1" d="M708.3,299.4c0,0.9-0.6,1.4-1.4,1.4"/>
	<path class="st1" d="M222.3,515.4c0,0.9-0.6,1.4-1.4,1.4"/>
	<path class="st1" d="M184.1,300.9c-0.9,0-1.4-0.6-1.4-1.4"/>
	<path class="st1" d="M400,408.8c-0.9,0-1.4-0.6-1.4-1.4"/>
	<path class="st1" d="M927.1,458.1c0,0.9-0.6,1.4-1.4,1.4"/>
	<path class="st1" d="M238.1,354.8c-0.9,0-1.4-0.6-1.4-1.4"/>
	<path class="st1" d="M830.6,532.6c0-0.9,0.6-1.4,1.4-1.4"/>
	<path class="st1" d="M276.3,316.6v36.9"/>
	<path class="st1" d="M547.7,283.8h-1.4"/>
	<path class="st1" d="M708.3,478.6v36.9"/>
	<path class="st1" d="M816.3,532.6v36.9"/>
	<path class="st1" d="M778,462.8c-0.9,0-1.4-0.6-1.4-1.4"/>
	<path class="st1" d="M868.8,477.1c0.9,0,1.4,0.6,1.4,1.4"/>
	<path class="st1" d="M924.3,480.5h1.4"/>
	<path class="st1" d="M398.6,407.4v-36.9"/>
	<path class="st1" d="M760.9,300.9H724"/>
	<path class="st1" d="M484.2,477.1h-36.3"/>
	<path class="st1" d="M886,315.2h36.9"/>
	<path class="st1" d="M925.7,440.2c0.9,0,1.4,0.6,1.4,1.4"/>
	<path class="st1" d="M724,408.8c-0.9,0-1.4-0.6-1.4-1.4"/>
	<path class="st1" d="M328.9,261.2c0.9,0,1.4,0.6,1.4,1.4"/>
	<path class="st1" d="M222.3,440.3h1.4"/>
	<path class="st1" d="M346,423.1h36.9"/>
	<path class="st1" d="M668.6,245.4v-36.9"/>
	<path class="st1" d="M369.4,570.8h-36.9"/>
	<path class="st1" d="M236.6,461.4v-36.9"/>
	<path class="st1" d="M546.3,391.8v48.5"/>
	<path class="st1" d="M868.8,531.1c0.9,0,1.4,0.6,1.4,1.4"/>
	<path class="st1" d="M182.7,299.4v-36.9"/>
	<path class="st1" d="M886,369.1h36.9"/>
	<path class="st1" d="M670,300.9c-0.9,0-1.4-0.6-1.4-1.4"/>
	<path class="st1" d="M614.6,316.6c0-0.9,0.6-1.4,1.4-1.4"/>
	<path class="st1" d="M868.8,207.2c0.9,0,1.4,0.6,1.4,1.4"/>
	<path class="st1" d="M182.7,461.6v-36.9"/>
	<path class="st1" d="M288.4,570.8h-36.9"/>
	<path class="st1" d="M398.6,424.6c0-0.9,0.6-1.4,1.4-1.4"/>
	<path class="st1" d="M507.9,207.2h36.9"/>
	<path class="st1" d="M220.9,477.1c0.9,0,1.4,0.6,1.4,1.4"/>
	<path class="st1" d="M506.6,353.6v-36.9"/>
	<path class="st1" d="M225.2,458.2c0,0.9-0.6,1.4-1.4,1.4"/>
	<path class="st1" d="M940,531.1h36.9"/>
	<path class="st1" d="M816.3,262.6v36.9"/>
	<path class="st1" d="M384.3,316.6v36.9"/>
	<path class="st1" d="M762.3,515.4c0,0.9-0.6,1.4-1.4,1.4"/>
	<path class="st1" d="M814.8,354.8H778"/>
	<path class="st1" d="M562,369.2h36.9"/>
	<path class="st1" d="M778,408.8c-0.9,0-1.4-0.6-1.4-1.4"/>
	<path class="st1" d="M182.7,245.4v-36.9"/>
	<path class="st1" d="M382.9,477.1c0.9,0,1.4,0.6,1.4,1.4"/>
	<path class="st1" d="M184.1,261.2h36.9"/>
	<path class="st1" d="M832,369.2h36.9"/>
	<path class="st1" d="M938.6,370.6c0-0.9,0.6-1.4,1.4-1.4"/>
	<path class="st1" d="M776.6,353.4v-36.9"/>
	<path class="st1" d="M652.9,354.8H616"/>
	<path class="st1" d="M422.4,475.7v36.9"/>
	<path class="st1" d="M615.7,474.3h-16.4"/>
	<path class="st1" d="M398.6,262.6c0-0.9,0.6-1.4,1.4-1.4"/>
	<path class="st1" d="M724,300.9c-0.9,0-1.4-0.6-1.4-1.4"/>
	<path class="st1" d="M438.3,461.4c0,0.9-0.6,1.4-1.4,1.4"/>
	<path class="st1" d="M816.3,370.6v36.9"/>
	<path class="st1" d="M292.1,423.1h36.9"/>
	<path class="st1" d="M940,408.8c-0.9,0-1.4-0.6-1.4-1.4"/>
	<path class="st1" d="M870.3,299.4c0,0.9-0.6,1.4-1.4,1.4"/>
	<path class="st1" d="M922.8,207.2c0.9,0,1.4,0.6,1.4,1.4"/>
	<path class="st1" d="M976.8,207.2c0.9,0,1.4,0.6,1.4,1.4"/>
	<path class="st1" d="M344.6,245.4v-36.9"/>
	<path class="st1" d="M274.9,207.2c0.9,0,1.4,0.6,1.4,1.4"/>
	<path class="st1" d="M670,315.2h36.9"/>
	<path class="st1" d="M654.3,245.4c0,0.9-0.6,1.4-1.4,1.4"/>
	<path class="st1" d="M222.3,569.4c0,0.9-0.6,1.4-1.4,1.4"/>
	<path class="st1" d="M384.3,208.6v36.9"/>
	<path class="st1" d="M436.9,462.8H400"/>
	<path class="st1" d="M886,354.8c-0.9,0-1.4-0.6-1.4-1.4"/>
	<path class="st1" d="M924.2,316.6v36.9"/>
	<path class="st1" d="M722.6,299.4v-36.9"/>
	<path class="st1" d="M344.6,299.4v-36.9"/>
	<path class="st1" d="M436.9,300.9H400"/>
	<path class="st1" d="M491.3,514h15.3"/>
	<path class="st1" d="M582.3,516.8h36.9"/>
	<path class="st1" d="M940,570.8c-0.9,0-1.4-0.6-1.4-1.4"/>
	<path class="st1" d="M490.9,354.8H454"/>
	<path class="st1" d="M620.5,478.6c0-0.9-0.6-1.4-1.4-1.4"/>
	<path class="st1" d="M382.9,408.8H346"/>
	<path class="st1" d="M816.3,461.4c0,0.9-0.6,1.4-1.4,1.4"/>
	<path class="st1" d="M614.6,353.4v-36.9"/>
	<path class="st1" d="M490.9,300.9H454"/>
	<path class="st1" d="M708.3,370.6v36.9"/>
	<path class="st1" d="M938.6,262.6c0-0.9,0.6-1.4,1.4-1.4"/>
	<path class="st1" d="M276.3,370.6v36.9"/>
	<path class="st1" d="M598.9,246.9H562"/>
	<path class="st1" d="M491.3,474.3c-0.9,0-1.4,0.6-1.4,1.4"/>
	<path class="st1" d="M222.3,299.4c0,0.9-0.6,1.4-1.4,1.4"/>
</g>
<g>
	<path class="st0" d="M504.1,198.2H177.5"/>
</g>
<g>
	<path class="st1" d="M616,300.9c-0.9,0-1.4-0.6-1.4-1.4"/>
	<path class="st1" d="M668.6,532.6c0-0.9,0.6-1.4,1.4-1.4"/>
	<path class="st1" d="M184.1,570.8c-0.9,0-1.4-0.6-1.4-1.4"/>
	<path class="st1" d="M557.2,475.7c0-0.9,0.6-1.4,1.4-1.4"/>
	<path class="st1" d="M276.3,208.6v36.9"/>
	<path class="st1" d="M870.3,262.6v36.9"/>
	<path class="st1" d="M870.3,353.4c0,0.9-0.6,1.4-1.4,1.4"/>
	<path class="st1" d="M760.9,315.2c0.9,0,1.4,0.6,1.4,1.4"/>
	<path class="st1" d="M184.1,354.8c-0.9,0-1.4-0.6-1.4-1.4"/>
	<path class="st1" d="M328.9,369.2c0.9,0,1.4,0.6,1.4,1.4"/>
	<path class="st1" d="M925.7,548.3c0.9,0,1.4,0.6,1.4,1.4"/>
	<path class="st1" d="M832,570.8c-0.9,0-1.4-0.6-1.4-1.4"/>
	<path class="st1" d="M447.9,475.7c0-0.9-0.6-1.4-1.4-1.4"/>
	<path class="st1" d="M708.3,262.6v36.9"/>
	<path class="st1" d="M927.1,566.1c0,0.9-0.6,1.4-1.4,1.4"/>
	<path class="st1" d="M778,531.1h36.9"/>
	<path class="st1" d="M940,423.1h36.9"/>
	<path class="st1" d="M776.6,424.6c0-0.9,0.6-1.4,1.4-1.4"/>
	<path class="st1" d="M238.1,207.2h36.9"/>
	<path class="st1" d="M830.6,515.4v-36.9"/>
	<path class="st1" d="M290.6,262.6c0-0.9,0.6-1.4,1.4-1.4"/>
	<path class="st1" d="M328.9,354.8h-36.9"/>
	<path class="st1" d="M706.9,477.1c0.9,0,1.4,0.6,1.4,1.4"/>
	<path class="st1" d="M562,408.8c-0.9,0-1.4-0.6-1.4-1.4"/>
	<path class="st1" d="M940,315.2h36.9"/>
	<path class="st1" d="M938.6,532.6c0-0.9,0.6-1.4,1.4-1.4"/>
	<path class="st1" d="M223.8,440.3c0.9,0,1.4,0.6,1.4,1.4"/>
	<path class="st1" d="M438.3,316.6v36.9"/>
	<path class="st1" d="M830.6,208.6c0-0.9,0.6-1.4,1.4-1.4"/>
	<path class="st1" d="M576.5,475.7v36.9"/>
	<path class="st1" d="M940,261.2h36.9"/>
	<path class="st1" d="M924.3,567.6v2"/>
	<path class="st1" d="M816.3,569.4c0,0.9-0.6,1.4-1.4,1.4"/>
	<path class="st1" d="M644.1,475.7v36.9"/>
	<path class="st1" d="M276.3,478.6v36.9"/>
	<path class="st1" d="M236.6,262.6c0-0.9,0.6-1.4,1.4-1.4"/>
	<path class="st1" d="M330.3,461.4c0,0.9-0.6,1.4-1.4,1.4"/>
	<path class="st1" d="M624.8,475.7c0-0.9,0.6-1.4,1.4-1.4"/>
	<path class="st1" d="M560.6,208.6c0-0.9,0.6-1.4,1.4-1.4"/>
	<path class="st1" d="M220.9,516.8h-36.9"/>
	<path class="st1" d="M276.3,407.4c0,0.9-0.6,1.4-1.4,1.4"/>
	<path class="st1" d="M370.8,532.6v36.9"/>
	<path class="st1" d="M384.3,407.4c0,0.9-0.6,1.4-1.4,1.4"/>
	<path class="st1" d="M549.1,333.7v16.4"/>
	<path class="st1" d="M508,355c-0.9,0-1.4-0.6-1.4-1.4"/>
	<path class="st1" d="M330.3,407.4c0,0.9-0.6,1.4-1.4,1.4"/>
	<path class="st1" d="M369.4,531.1c0.9,0,1.4,0.6,1.4,1.4"/>
	<path class="st1" d="M490.9,408.8H454"/>
	<path class="st1" d="M452.6,262.6c0-0.9,0.6-1.4,1.4-1.4"/>
	<path class="st1" d="M938.6,299.4v-36.9"/>
	<path class="st1" d="M652.9,315.2c0.9,0,1.4,0.6,1.4,1.4"/>
	<path class="st1" d="M344.6,316.6c0-0.9,0.6-1.4,1.4-1.4"/>
	<path class="st1" d="M438.3,353.4c0,0.9-0.6,1.4-1.4,1.4"/>
	<path class="st1" d="M328.9,300.9h-36.9"/>
	<path class="st1" d="M549.1,282.4c0,0.9-0.6,1.4-1.4,1.4"/>
	<path class="st1" d="M940,462.8c-0.9,0-1.4-0.6-1.4-1.4"/>
	<path class="st1" d="M290.6,299.4v-36.9"/>
	<path class="st1" d="M220.9,369.2c0.9,0,1.4,0.6,1.4,1.4"/>
</g>
<g>
	<path class="st0" d="M173.2,576.4c0,2.3,2,4.3,4.3,4.3"/>
</g>
<g>
	<path class="st1" d="M776.6,532.6c0-0.9,0.6-1.4,1.4-1.4"/>
	<path class="st1" d="M832,423.1h36.9"/>
	<path class="st1" d="M447.3,516.8h36.9"/>
	<path class="st1" d="M778,261.2h36.9"/>
	<path class="st1" d="M598.9,369.2c0.9,0,1.4,0.6,1.4,1.4"/>
	<path class="st1" d="M452.6,299.4v-36.9"/>
	<path class="st1" d="M832,207.2h36.9"/>
	<path class="st1" d="M722.6,370.6c0-0.9,0.6-1.4,1.4-1.4"/>
	<path class="st1" d="M274.9,246.9h-36.9"/>
	<path class="st1" d="M182.7,515.4v-36.9"/>
	<path class="st1" d="M400,423.1h36.9"/>
	<path class="st1" d="M509.2,475.7c0-0.9-0.6-1.4-1.4-1.4"/>
	<path class="st1" d="M506.6,262.6c0-0.9,0.6-1.4,1.4-1.4"/>
	<path class="st1" d="M830.6,353.4v-36.9"/>
	<path class="st1" d="M438.3,407.4c0,0.9-0.6,1.4-1.4,1.4"/>
	<path class="st1" d="M670,516.8c-0.9,0-1.4-0.6-1.4-1.4"/>
	<path class="st1" d="M274.9,300.9h-36.9"/>
	<path class="st1" d="M976.8,516.8H940"/>
	<path class="st1" d="M546.3,370.5v2"/>
	<path class="st1" d="M760.9,516.8H724"/>
	<path class="st1" d="M976.8,477.1c0.9,0,1.4,0.6,1.4,1.4"/>
	<path class="st1" d="M616,354.8c-0.9,0-1.4-0.6-1.4-1.4"/>
	<path class="st1" d="M722.6,262.6c0-0.9,0.6-1.4,1.4-1.4"/>
	<path class="st1" d="M776.6,569.4v-36.9"/>
	<path class="st1" d="M274.9,315.2c0.9,0,1.4,0.6,1.4,1.4"/>
	<path class="st1" d="M668.6,478.6c0-0.9,0.6-1.4,1.4-1.4"/>
	<path class="st1" d="M438.3,370.6v36.9"/>
	<path class="st1" d="M654.3,262.6v36.9"/>
	<path class="st1" d="M814.8,369.2c0.9,0,1.4,0.6,1.4,1.4"/>
	<path class="st1" d="M222.3,478.6v36.9"/>
	<path class="st1" d="M225.2,441.7v16.4"/>
	<path class="st1" d="M924.2,262.6v36.9"/>
	<path class="st1" d="M398.6,299.4v-36.9"/>
</g>
<g>
	<path class="st0" d="M173.2,202.5v373.9"/>
</g>
<g>
	<path class="st1" d="M654.3,370.6v36.9"/>
	<path class="st1" d="M814.8,408.8H778"/>
	<path class="st1" d="M436.9,315.2c0.9,0,1.4,0.6,1.4,1.4"/>
	<path class="st1" d="M832,354.8c-0.9,0-1.4-0.6-1.4-1.4"/>
	<path class="st1" d="M436.9,369.2c0.9,0,1.4,0.6,1.4,1.4"/>
	<path class="st1" d="M724,531.1h36.9"/>
	<path class="st1" d="M940,300.9c-0.9,0-1.4-0.6-1.4-1.4"/>
	<path class="st1" d="M600.3,407.4c0,0.9-0.6,1.4-1.4,1.4"/>
	<path class="st1" d="M762.3,532.6v36.9"/>
	<path class="st1" d="M454,261.2h36.9"/>
	<path class="st1" d="M620.5,515.4v-36.9"/>
	<path class="st1" d="M436.9,246.9H400"/>
</g>
<g>
	<path class="st0" d="M177.5,198.2c-2.3,0-4.3,2-4.3,4.3"/>
</g>
<g>
	<path class="st1" d="M220.9,315.2c0.9,0,1.4,0.6,1.4,1.4"/>
	<path class="st1" d="M236.6,316.6c0-0.9,0.6-1.4,1.4-1.4"/>
	<path class="st1" d="M652.9,408.8H616"/>
	<path class="st1" d="M927.1,549.7v16.4"/>
	<path class="st1" d="M924.2,353.4c0,0.9-0.6,1.4-1.4,1.4"/>
	<path class="st1" d="M722.6,407.4v-36.9"/>
	<path class="st1" d="M598.9,261.2c0.9,0,1.4,0.6,1.4,1.4"/>
	<path class="st1" d="M706.9,423.1c0.9,0,1.4,0.6,1.4,1.4"/>
	<path class="st1" d="M814.8,462.8H778"/>
	<path class="st1" d="M454,207.2h36.9"/>
	<path class="st1" d="M276.3,424.6v36.9"/>
	<path class="st1" d="M976.8,423.1c0.9,0,1.4,0.6,1.4,1.4"/>
	<path class="st1" d="M614.6,262.6c0-0.9,0.6-1.4,1.4-1.4"/>
	<path class="st1" d="M236.6,370.6c0-0.9,0.6-1.4,1.4-1.4"/>
	<path class="st1" d="M220.9,207.2c0.9,0,1.4,0.6,1.4,1.4"/>
	<path class="st1" d="M654.3,208.6v36.9"/>
	<path class="st1" d="M454,462.8c-0.9,0-1.4-0.6-1.4-1.4"/>
	<path class="st1" d="M580.9,515.4c0,0.9,0.6,1.4,1.4,1.4"/>
	<path class="st1" d="M886,207.2h36.9"/>
</g>
<g>
	<path class="st0" d="M177.5,580.6h805.9"/>
</g>
<g>
	<path class="st1" d="M922.8,300.9H886"/>
	<path class="st1" d="M927.1,482v16.4"/>
	<path class="st1" d="M292.1,354.8c-0.9,0-1.4-0.6-1.4-1.4"/>
	<path class="st1" d="M547.7,264.6c0.9,0,1.4,0.6,1.4,1.4"/>
	<path class="st1" d="M276.3,353.4c0,0.9-0.6,1.4-1.4,1.4"/>
	<path class="st1" d="M708.3,424.6v36.9"/>
	<path class="st1" d="M182.7,208.6c0-0.9,0.6-1.4,1.4-1.4"/>
	<path class="st1" d="M549.1,350.2c0,0.9-0.6,1.4-1.4,1.4"/>
	<path class="st1" d="M184.1,369.2h36.9"/>
	<path class="st1" d="M870.3,532.6v36.9"/>
	<path class="st1" d="M485.6,515.4v-36.9"/>
	<path class="st1" d="M940,354.8c-0.9,0-1.4-0.6-1.4-1.4"/>
	<path class="st1" d="M722.6,515.4v-36.9"/>
	<path class="st1" d="M722.6,532.6c0-0.9,0.6-1.4,1.4-1.4"/>
	<path class="st1" d="M924.3,372.5h1.4"/>
	<path class="st1" d="M830.6,569.4v-36.9"/>
	<path class="st1" d="M182.7,532.6c0-0.9,0.6-1.4,1.4-1.4"/>
	<path class="st1" d="M626.2,474.3h16.4"/>
	<path class="st1" d="M668.6,208.6c0-0.9,0.6-1.4,1.4-1.4"/>
	<path class="st1" d="M760.9,207.2c0.9,0,1.4,0.6,1.4,1.4"/>
	<path class="st1" d="M222.3,391.8v48.5"/>
	<path class="st1" d="M544.9,355H508"/>
	<path class="st1" d="M549.1,266v16.4"/>
	<path class="st1" d="M922.8,315.2c0.9,0,1.4,0.6,1.4,1.4"/>
	<path class="st1" d="M600.3,424.6v36.9"/>
	<path class="st1" d="M382.9,207.2c0.9,0,1.4,0.6,1.4,1.4"/>
	<path class="st1" d="M938.6,461.4v-36.9"/>
	<path class="st1" d="M652.9,423.1c0.9,0,1.4,0.6,1.4,1.4"/>
	<path class="st1" d="M223.8,459.6h-1.4"/>
	<path class="st1" d="M562,246.9c-0.9,0-1.4-0.6-1.4-1.4"/>
	<path class="st1" d="M562,207.2h36.9"/>
	<path class="st1" d="M220.9,261.2c0.9,0,1.4,0.6,1.4,1.4"/>
	<path class="st1" d="M922.8,261.2c0.9,0,1.4,0.6,1.4,1.4"/>
	<path class="st1" d="M236.6,515.4v-36.9"/>
	<path class="st1" d="M870.3,461.4c0,0.9-0.6,1.4-1.4,1.4"/>
	<path class="st1" d="M328.9,423.1c0.9,0,1.4,0.6,1.4,1.4"/>
	<path class="st1" d="M454,408.8c-0.9,0-1.4-0.6-1.4-1.4"/>
	<path class="st1" d="M331.1,532.6c0-0.9,0.6-1.4,1.4-1.4"/>
	<path class="st1" d="M940,369.2h36.9"/>
	<path class="st1" d="M292.1,246.9c-0.9,0-1.4-0.6-1.4-1.4"/>
	<path class="st1" d="M619.1,477.1h-2"/>
	<path class="st1" d="M546.2,245.4c0,0.9-0.6,1.4-1.4,1.4"/>
	<path class="st1" d="M600.3,208.6v36.9"/>
	<path class="st1" d="M868.8,246.9H832"/>
	<path class="st1" d="M222.3,459.6v2"/>
	<path class="st1" d="M382.9,354.8H346"/>
	<path class="st1" d="M670,423.1h36.9"/>
	<path class="st1" d="M724,462.8c-0.9,0-1.4-0.6-1.4-1.4"/>
	<path class="st1" d="M668.6,299.4v-36.9"/>
	<path class="st1" d="M600.3,316.6v36.9"/>
	<path class="st1" d="M344.6,461.4v-36.9"/>
	<path class="st1" d="M423.8,514h22.1"/>
	<path class="st1" d="M654.3,424.6v36.9"/>
	<path class="st1" d="M344.6,424.6c0-0.9,0.6-1.4,1.4-1.4"/>
	<path class="st1" d="M222.3,316.6v36.9"/>
	<path class="st1" d="M708.3,353.4c0,0.9-0.6,1.4-1.4,1.4"/>
	<path class="st1" d="M560.6,424.6c0-0.9,0.6-1.4,1.4-1.4"/>
	<path class="st1" d="M274.9,408.8h-36.9"/>
	<path class="st1" d="M925.7,459.5h-1.4"/>
	<path class="st1" d="M724,315.2h36.9"/>
	<path class="st1" d="M925.7,372.5c0.9,0,1.4,0.6,1.4,1.4"/>
	<path class="st1" d="M668.6,515.4v-36.9"/>
	<path class="st1" d="M292.1,477.1h36.9"/>
	<path class="st1" d="M452.6,370.6c0-0.9,0.6-1.4,1.4-1.4"/>
	<path class="st1" d="M816.3,353.4c0,0.9-0.6,1.4-1.4,1.4"/>
	<path class="st1" d="M600.3,353.4c0,0.9-0.6,1.4-1.4,1.4"/>
	<path class="st1" d="M330.3,316.6v36.9"/>
	<path class="st1" d="M762.3,208.6v36.9"/>
	<path class="st1" d="M924.2,245.4c0,0.9-0.6,1.4-1.4,1.4"/>
	<path class="st1" d="M938.6,515.4v-36.9"/>
	<path class="st1" d="M924.3,370.5v2"/>
	<path class="st1" d="M760.9,261.2c0.9,0,1.4,0.6,1.4,1.4"/>
	<path class="st1" d="M452.6,245.4v-36.9"/>
	<path class="st1" d="M292.1,207.2h36.9"/>
	<path class="st1" d="M289.8,569.4c0,0.9-0.6,1.4-1.4,1.4"/>
	<path class="st1" d="M332.6,570.8c-0.9,0-1.4-0.6-1.4-1.4"/>
	<path class="st1" d="M438.3,299.4c0,0.9-0.6,1.4-1.4,1.4"/>
	<path class="st1" d="M884.6,424.6v-54.1"/>
	<path class="st1" d="M238.1,516.8c-0.9,0-1.4-0.6-1.4-1.4"/>
	<path class="st1" d="M236.6,245.4v-36.9"/>
	<path class="st1" d="M220.9,354.8h-36.9"/>
	<path class="st1" d="M870.3,478.6v36.9"/>
	<path class="st1" d="M776.6,316.6c0-0.9,0.6-1.4,1.4-1.4"/>
	<path class="st1" d="M706.9,531.1c0.9,0,1.4,0.6,1.4,1.4"/>
	<path class="st1" d="M454,315.2h36.9"/>
	<path class="st1" d="M276.3,461.4c0,0.9-0.6,1.4-1.4,1.4"/>
	<path class="st1" d="M292.1,462.8c-0.9,0-1.4-0.6-1.4-1.4"/>
	<path class="st1" d="M978.2,461.4c0,0.9-0.6,1.4-1.4,1.4"/>
	<path class="st1" d="M560.6,353.4v-36.9"/>
	<path class="st1" d="M490.9,246.9H454"/>
	<path class="st1" d="M544.7,246.9h-36.9"/>
	<path class="st1" d="M384.3,478.6v36.9"/>
	<path class="st1" d="M816.3,245.4c0,0.9-0.6,1.4-1.4,1.4"/>
	<path class="st1" d="M544.9,261.2c0.9,0,1.4,0.6,1.4,1.4"/>
	<path class="st1" d="M668.6,262.6c0-0.9,0.6-1.4,1.4-1.4"/>
	<path class="st1" d="M724,423.1h36.9"/>
	<path class="st1" d="M546.3,461.5c0,0.9-0.6,1.4-1.4,1.4"/>
	<path class="st1" d="M924.3,391.8v48.5"/>
	<path class="st1" d="M184.1,315.2h36.9"/>
	<path class="st1" d="M760.9,354.8H724"/>
	<path class="st1" d="M238.1,369.2h36.9"/>
	<path class="st1" d="M816.3,208.6v36.9"/>
	<path class="st1" d="M398.6,370.6c0-0.9,0.6-1.4,1.4-1.4"/>
	<path class="st1" d="M870.3,569.4c0,0.9-0.6,1.4-1.4,1.4"/>
	<path class="st1" d="M330.3,515.4c0,0.9-0.6,1.4-1.4,1.4"/>
	<path class="st1" d="M814.8,246.9H778"/>
	<path class="st1" d="M978.2,245.4c0,0.9-0.6,1.4-1.4,1.4"/>
	<path class="st1" d="M706.9,354.8H670"/>
	<path class="st1" d="M598.9,408.8H562"/>
	<path class="st1" d="M544.9,369.1c0.9,0,1.4,0.6,1.4,1.4"/>
	<path class="st1" d="M976.8,531.1c0.9,0,1.4,0.6,1.4,1.4"/>
	<path class="st1" d="M251.6,570.8c-0.9,0-1.4-0.6-1.4-1.4"/>
	<path class="st1" d="M976.8,300.9H940"/>
	<path class="st1" d="M706.9,315.2c0.9,0,1.4,0.6,1.4,1.4"/>
	<path class="st1" d="M760.9,462.8H724"/>
	<path class="st1" d="M558.7,514c-0.9,0-1.4-0.6-1.4-1.4"/>
	<path class="st1" d="M557.2,512.6v-36.9"/>
	<path class="st1" d="M927.1,498.4c0,0.9-0.6,1.4-1.4,1.4"/>
	<path class="st1" d="M492.3,461.4c0,0.9-0.6,1.4-1.4,1.4"/>
	<path class="st1" d="M490.9,207.2c0.9,0,1.4,0.6,1.4,1.4"/>
	<path class="st1" d="M708.3,515.4c0,0.9-0.6,1.4-1.4,1.4"/>
	<path class="st1" d="M423.8,474.3c-0.9,0-1.4,0.6-1.4,1.4"/>
	<path class="st1" d="M490.9,423.1c0.9,0,1.4,0.6,1.4,1.4"/>
	<path class="st1" d="M490.9,315.2c0.9,0,1.4,0.6,1.4,1.4"/>
	<path class="st1" d="M940,516.8c-0.9,0-1.4-0.6-1.4-1.4"/>
	<path class="st1" d="M652.9,246.9H616"/>
	<path class="st1" d="M652.9,462.8H616"/>
	<path class="st1" d="M384.3,353.4c0,0.9-0.6,1.4-1.4,1.4"/>
	<path class="st1" d="M562,354.8c-0.9,0-1.4-0.6-1.4-1.4"/>
	<path class="st1" d="M400,315.2h36.9"/>
	<path class="st1" d="M346,477.1h36.9"/>
	<path class="st1" d="M344.6,407.4v-36.9"/>
	<path class="st1" d="M922.8,571H886"/>
	<path class="st1" d="M508,261.2h36.9"/>
	<path class="st1" d="M722.6,569.4v-36.9"/>
	<path class="st1" d="M546.3,332.3h1.4"/>
	<path class="st1" d="M223.8,372.6c0.9,0,1.4,0.6,1.4,1.4"/>
	<path class="st1" d="M708.3,407.4c0,0.9-0.6,1.4-1.4,1.4"/>
	<path class="st1" d="M762.3,461.4c0,0.9-0.6,1.4-1.4,1.4"/>
	<path class="st1" d="M582.3,477.1c-0.9,0-1.4,0.6-1.4,1.4"/>
	<path class="st1" d="M776.6,461.4v-36.9"/>
	<path class="st1" d="M940,477.1h36.9"/>
	<path class="st1" d="M816.3,424.6v36.9"/>
	<path class="st1" d="M924.3,569.6c0,0.9-0.6,1.4-1.4,1.4"/>
	<path class="st1" d="M547.7,440.2c0.9,0,1.4,0.6,1.4,1.4"/>
	<path class="st1" d="M938.6,245.4v-36.9"/>
	<path class="st1" d="M223.8,391.8h-1.4"/>
	<path class="st1" d="M290.6,515.4v-36.9"/>
	<path class="st1" d="M276.3,299.4c0,0.9-0.6,1.4-1.4,1.4"/>
	<path class="st1" d="M328.9,462.8h-36.9"/>
	<path class="st1" d="M724,207.2h36.9"/>
	<path class="st1" d="M617.1,477.1v-1.4"/>
	<path class="st1" d="M886,300.9c-0.9,0-1.4-0.6-1.4-1.4"/>
	<path class="st1" d="M762.3,299.4c0,0.9-0.6,1.4-1.4,1.4"/>
	<path class="st1" d="M706.9,300.9H670"/>
	<path class="st1" d="M506.6,515.4c0,0.9,0.6,1.4,1.4,1.4"/>
	<path class="st1" d="M546.3,264.6h1.4"/>
	<path class="st1" d="M760.9,477.1c0.9,0,1.4,0.6,1.4,1.4"/>
	<path class="st1" d="M576.5,512.6c0,0.9-0.6,1.4-1.4,1.4"/>
	<path class="st1" d="M832,531.1h36.9"/>
	<path class="st1" d="M544.7,207.2c0.9,0,1.4,0.6,1.4,1.4"/>
	<path class="st1" d="M446.5,474.3h-22.7"/>
	<path class="st1" d="M328.9,207.2c0.9,0,1.4,0.6,1.4,1.4"/>
	<path class="st1" d="M642.7,514h-16.4"/>
	<path class="st1" d="M182.7,569.4v-36.9"/>
	<path class="st1" d="M509.2,477.1v-1.4"/>
	<path class="st1" d="M398.6,245.4v-36.9"/>
	<path class="st1" d="M832,246.9c-0.9,0-1.4-0.6-1.4-1.4"/>
	<path class="st1" d="M884.6,316.6c0-0.9,0.6-1.4,1.4-1.4"/>
	<path class="st1" d="M484.2,516.8c0.9,0,1.4-0.6,1.4-1.4"/>
	<path class="st1" d="M886,571c-0.9,0-1.4-0.6-1.4-1.4"/>
	<path class="st1" d="M776.6,478.6c0-0.9,0.6-1.4,1.4-1.4"/>
	<path class="st1" d="M330.3,262.6v36.9"/>
	<path class="st1" d="M778,207.2h36.9"/>
	<path class="st1" d="M884.6,370.5c0-0.9,0.6-1.4,1.4-1.4"/>
	<path class="st1" d="M598.9,207.2c0.9,0,1.4,0.6,1.4,1.4"/>
	<path class="st1" d="M616,261.2h36.9"/>
	<path class="st1" d="M182.7,424.7v-54.1"/>
	<path class="st1" d="M614.6,245.4v-36.9"/>
	<path class="st1" d="M868.8,408.8H832"/>
	<path class="st1" d="M762.3,262.6v36.9"/>
	<path class="st1" d="M654.3,353.4c0,0.9-0.6,1.4-1.4,1.4"/>
	<path class="st1" d="M330.3,424.6v36.9"/>
	<path class="st1" d="M924.2,208.6v36.9"/>
	<path class="st1" d="M668.6,407.4v-36.9"/>
	<path class="st1" d="M940,246.9c-0.9,0-1.4-0.6-1.4-1.4"/>
	<path class="st1" d="M624.8,512.6v-36.9"/>
	<path class="st1" d="M870.3,208.6v36.9"/>
	<path class="st1" d="M724,354.8c-0.9,0-1.4-0.6-1.4-1.4"/>
	<path class="st1" d="M978.2,478.6v36.9"/>
	<path class="st1" d="M978.2,316.6v36.9"/>
	<path class="st1" d="M868.8,261.2c0.9,0,1.4,0.6,1.4,1.4"/>
	<path class="st1" d="M382.9,423.1c0.9,0,1.4,0.6,1.4,1.4"/>
	<path class="st1" d="M438.3,208.6v36.9"/>
	<path class="st1" d="M546.2,208.6v36.9"/>
	<path class="st1" d="M346,354.8c-0.9,0-1.4-0.6-1.4-1.4"/>
	<path class="st1" d="M706.9,570.8H670"/>
	<path class="st1" d="M454,423.1h36.9"/>
	<path class="st1" d="M547.7,391.8h-1.4"/>
	<path class="st1" d="M346,261.2h36.9"/>
	<path class="st1" d="M292.1,261.2h36.9"/>
	<path class="st1" d="M400,246.9c-0.9,0-1.4-0.6-1.4-1.4"/>
	<path class="st1" d="M400,300.9c-0.9,0-1.4-0.6-1.4-1.4"/>
	<path class="st1" d="M670,207.2h36.9"/>
	<path class="st1" d="M670,354.8c-0.9,0-1.4-0.6-1.4-1.4"/>
	<path class="st1" d="M776.6,515.4v-36.9"/>
	<path class="st1" d="M816.3,478.6v36.9"/>
	<path class="st1" d="M546.3,372.5h1.4"/>
	<path class="st1" d="M506.6,461.5v-36.9"/>
	<path class="st1" d="M290.6,461.4v-36.9"/>
	<path class="st1" d="M547.7,372.5c0.9,0,1.4,0.6,1.4,1.4"/>
</g>
</svg>
