<?xml version="1.0" encoding="UTF-8"?>
<svg id="Layer_2" data-name="Layer 2" xmlns="http://www.w3.org/2000/svg" viewBox="0 0 89.49 18.67">
  <defs>
    <style>
      .cls-1 {
        fill: #231f20;
        stroke-width: 0px;
      }
    </style>
  </defs>
  <g id="Layer_1-2" data-name="Layer 1">
    <g>
      <path class="cls-1" d="m7.04,7.94h4.81v1.69h-.69v-1.01h-1.34v5.11h1.02v.69h-2.81v-.69h1.02v-5.11h-1.33v1.01h-.69v-1.69Z"/>
      <path class="cls-1" d="m15.11,13.71h.35l1.15-3.92h.75l-1.29,4.16c-.07.22-.14.46-.21.74-.07.27-.17.53-.3.77-.13.24-.31.44-.53.61-.22.17-.51.25-.87.25-.08,0-.17,0-.25-.03-.09-.02-.18-.04-.26-.07s-.17-.06-.24-.1c-.07-.04-.13-.07-.17-.11l.26-.67s.09.06.15.09c.06.03.14.06.21.08s.15.04.23.06c.07.02.14.02.19.02.46,0,.78-.39.94-1.18h-.62l-1.94-4.63h.83l1.62,3.92Z"/>
      <path class="cls-1" d="m18.67,11.41c0-.06,0-.13,0-.22,0-.09,0-.18-.01-.28,0-.1-.01-.19-.02-.28,0-.09-.02-.17-.03-.24h-.62v-.6h1.23l.09.65h.05c.17-.22.38-.4.63-.54.26-.15.57-.22.94-.22.66,0,1.16.18,1.49.55s.5.96.5,1.79c0,.39-.06.74-.17,1.05-.11.31-.28.58-.49.79-.21.22-.46.38-.76.5s-.62.18-.98.18c-.13,0-.25,0-.35-.01-.1,0-.19-.02-.28-.04-.08-.02-.17-.04-.25-.06-.08-.02-.17-.06-.26-.09v1.94h-.71v-4.86Zm2.13-1.05c-.19,0-.36.03-.52.1-.16.07-.31.16-.44.27s-.23.23-.31.37c-.08.14-.13.27-.15.41v2.11c.14.09.29.16.46.22.17.05.39.08.67.08.49,0,.89-.16,1.19-.48s.44-.8.44-1.42c0-.52-.1-.93-.31-1.21-.21-.29-.55-.43-1.03-.43Z"/>
      <path class="cls-1" d="m23.86,12.11c0-.75.19-1.34.58-1.77.39-.44.94-.65,1.67-.65.39,0,.72.06,1,.19s.51.3.7.51c.19.22.32.47.41.77.09.3.13.61.13.95,0,.37-.05.71-.15,1s-.24.55-.44.76c-.19.21-.43.37-.71.49s-.6.17-.96.17c-.38,0-.72-.06-1-.19-.28-.13-.52-.3-.7-.51-.19-.22-.32-.47-.41-.77-.09-.3-.13-.61-.13-.95Zm.77,0c0,.22.03.43.08.65.05.22.14.41.25.58.12.17.27.31.46.42.19.1.42.16.69.16.49,0,.86-.15,1.11-.46.25-.31.37-.75.37-1.35,0-.22-.03-.44-.08-.65-.05-.21-.14-.41-.26-.58-.12-.17-.27-.31-.46-.42-.19-.1-.42-.16-.69-.16-.49,0-.86.15-1.11.45-.25.3-.37.75-.37,1.35Z"/>
      <path class="cls-1" d="m33.12,10.12l.09-.88h-.05l-.44.8-.94,1.58h-.23l-.99-1.59-.43-.79h-.05l.11.87v4.31h-.75v-6.48h.71l1.54,2.46h.02l1.48-2.46h.69v6.48h-.77v-4.31Z"/>
      <path class="cls-1" d="m35.45,10.16c.27-.15.56-.27.9-.33.33-.07.66-.1.98-.1s.57.05.77.15c.2.1.36.23.47.38.11.16.19.34.23.54.04.2.06.4.06.61,0,.23,0,.48-.02.75-.01.27-.02.53-.03.8,0,.31.02.6.06.88h.62v.6h-1.22l-.08-.69h-.05c-.04.06-.09.13-.17.21s-.17.17-.29.25c-.12.08-.27.16-.44.22s-.38.09-.61.09c-.46,0-.82-.12-1.09-.35-.27-.23-.4-.56-.4-.96,0-.31.07-.58.21-.79.14-.21.34-.37.6-.48.26-.11.57-.18.94-.19.37-.02.78,0,1.24.07.03-.28.04-.52.01-.71-.02-.19-.07-.34-.15-.45-.08-.11-.19-.19-.33-.24-.14-.05-.31-.07-.52-.07-.28,0-.54.04-.8.12-.25.08-.48.16-.68.24l-.23-.54Zm1.37,3.73c.17,0,.33-.03.48-.08.15-.06.28-.13.39-.21.11-.09.2-.18.28-.28.07-.1.13-.2.17-.29v-.65c-.32-.06-.62-.08-.89-.08s-.51.03-.7.09c-.2.06-.35.15-.46.27-.11.12-.17.28-.17.48s.07.38.21.53c.14.15.37.23.7.23Z"/>
      <path class="cls-1" d="m40.29,9.79h1.1v-.92l.73-.2v1.12h2.47v.62h-2.47v2.19c0,.45.11.78.33,1,.22.22.53.32.94.32.28,0,.52-.05.72-.16s.39-.22.56-.34l.24.55c-.22.17-.47.31-.77.42-.3.1-.61.16-.92.16-.25,0-.48-.04-.7-.11-.22-.07-.41-.18-.58-.33-.17-.15-.3-.34-.4-.57-.1-.23-.15-.51-.15-.83v-2.3h-1.1v-.62Z"/>
      <path class="cls-1" d="m46.17,14.42v-.62h1.25v-3.39h-1.25v-.62h1.73l.15.6h.05c.21-.19.44-.35.7-.49.26-.14.57-.2.93-.2.21,0,.38.04.5.12s.23.2.3.35c.07.15.12.34.14.56.02.22.04.47.04.75h-.65c0-.38-.04-.67-.12-.85-.08-.18-.22-.28-.42-.28-.19,0-.36.03-.52.08s-.29.12-.4.2-.21.16-.29.24c-.08.08-.14.15-.18.2v2.72h1.78v.62h-3.74Z"/>
      <path class="cls-1" d="m52.09,14.42v-.62h1.61v-3.39h-1.61v-.62h2.34v4.01h1.57v.62h-3.92Zm1.35-5.94c0-.17.06-.31.17-.43.11-.12.25-.18.43-.18s.33.06.45.18.18.26.18.43-.06.3-.18.41c-.12.11-.27.17-.45.17s-.31-.06-.43-.17-.17-.25-.17-.41Z"/>
      <path class="cls-1" d="m59.01,12.05l-1.79-2.26h.93l1.33,1.74,1.37-1.74h.83l-1.79,2.22,1.9,2.41h-.89l-1.47-1.9-1.5,1.9h-.84l1.92-2.37Z"/>
      <path class="cls-1" d="m70.07,13.89c.25,0,.47-.03.68-.1.21-.06.39-.16.54-.27.15-.12.27-.26.36-.42.09-.17.13-.35.13-.55,0-.42-.15-.73-.45-.91-.3-.18-.7-.27-1.21-.27h-.59v-.44l1.83-2.31h-2.78v-.67h3.67v.67l-1.83,2.14h.15c.29,0,.55.04.78.12.24.08.44.19.61.34.17.15.31.33.4.54.1.21.14.45.14.71,0,.33-.06.63-.19.89-.13.26-.31.48-.53.65-.22.18-.48.31-.78.4-.3.09-.62.13-.96.13-.32,0-.59-.02-.82-.07-.23-.05-.44-.1-.64-.17l.19-.65c.16.07.35.13.56.18.22.05.46.07.73.07Z"/>
      <path class="cls-1" d="m73.84,11.18c0-.52.05-1,.14-1.41.09-.42.23-.77.42-1.06s.42-.51.71-.66c.28-.15.62-.23,1.01-.23.41,0,.77.07,1.05.22s.52.36.7.65c.18.28.31.63.39,1.05.08.42.12.89.12,1.43s-.05,1-.14,1.41-.23.77-.42,1.06c-.19.29-.42.51-.71.66s-.62.23-1.01.23-.76-.08-1.04-.25-.52-.39-.71-.69c-.18-.3-.31-.65-.39-1.06-.08-.41-.12-.86-.12-1.36Zm.77,0c0,.15,0,.3.01.44,0,.14.02.28.03.42l2.76-2.5c-.1-.33-.26-.6-.47-.8-.21-.2-.49-.3-.84-.3-.55,0-.94.23-1.16.68-.23.45-.34,1.14-.34,2.05Zm3,0c0-.33-.02-.64-.06-.94l-2.75,2.51c.1.35.26.63.47.84.21.21.48.31.82.31.54,0,.93-.23,1.16-.68.23-.45.35-1.14.35-2.06Z"/>
      <path class="cls-1" d="m83.53,9.58c0,.57-.27,1.2-.81,1.9-.54.7-1.29,1.46-2.26,2.28h3.27v.67h-4.12v-.67c.12-.11.28-.26.48-.44.2-.18.42-.38.66-.6.23-.22.47-.46.72-.71.24-.25.46-.51.66-.78.2-.27.36-.53.48-.8.12-.27.19-.52.19-.77,0-.37-.1-.66-.29-.88-.19-.21-.49-.32-.88-.32-.33,0-.61.04-.84.11s-.44.18-.62.32l-.31-.51c.28-.2.57-.34.89-.44.31-.09.65-.14,1.03-.14.58,0,1.02.16,1.32.47.3.31.45.74.45,1.28Z"/>
      <path class="cls-1" d="m84.95,11.18c0-.52.05-1,.14-1.41.09-.42.23-.77.42-1.06s.42-.51.71-.66c.28-.15.62-.23,1.01-.23.41,0,.77.07,1.05.22s.52.36.7.65c.18.28.31.63.39,1.05.08.42.12.89.12,1.43s-.05,1-.14,1.41-.23.77-.42,1.06c-.19.29-.42.51-.71.66s-.62.23-1.01.23-.76-.08-1.04-.25-.52-.39-.71-.69c-.18-.3-.31-.65-.39-1.06-.08-.41-.12-.86-.12-1.36Zm.77,0c0,.15,0,.3.01.44,0,.14.02.28.03.42l2.76-2.5c-.1-.33-.26-.6-.47-.8-.21-.2-.49-.3-.84-.3-.55,0-.94.23-1.16.68-.23.45-.34,1.14-.34,2.05Zm3,0c0-.33-.02-.64-.06-.94l-2.75,2.51c.1.35.26.63.47.84.21.21.48.31.82.31.54,0,.93-.23,1.16-.68.23-.45.35-1.14.35-2.06Z"/>
    </g>
    <g>
      <path class="cls-1" d="m26.46,3.06s-.08.02-.12.03c-.14.01-.21-.08-.21-.27-.01-.24.16-.63.51-1.16.45-.69,1.08-1.2,1.87-1.53.03-.07.09-.11.2-.12.05,0,.12,0,.19,0,.23.03.34.11.32.25.03.34-.02.67-.15.99-.05.11-.15.17-.32.18-.14,0-.21-.03-.21-.11,0-.02,0-.05,0-.07.03-.12.04-.23.05-.33-.34.11-.57.2-.69.26-.19.1-.38.25-.56.47-.23.26-.34.41-.34.46,0,.02.04.03.13.02.12-.01.32-.05.58-.12.3-.07.5-.13.61-.14.32-.05.6,0,.83.16.13.09.21.25.22.49.04.54-.29,1.06-.98,1.55-.36.25-.84.43-1.46.55-.05.02-.09.03-.13.04-.2.02-.33-.19-.34-.39-.02-.32.19-.52.5-.47.14.01.29.01.42,0,.25-.02.52-.12.8-.29.34-.19.5-.41.48-.63-.02-.19-.19-.26-.52-.23-.56.06-1.12.19-1.7.41Z"/>
      <path class="cls-1" d="m29.69,5.71c-.11.01-.17-.02-.18-.1,0-.03,0-.07.02-.1.42-1.66.56-3.24.41-4.73-.02-.2.09-.34.31-.41.04-.01.08-.02.13-.02.15-.01.23.06.23.23v.69c.28-.52.65-.89,1.06-1.13.12-.06.23-.1.34-.11.29-.03.55.14.79.49.13.2.21.41.23.64.04.47-.08.99-.39,1.57-.29.54-.64.96-1.03,1.24-.22.16-.44.26-.66.3-.22.03-.41-.03-.57-.18l-.08.61-.08.6c-.07.21-.2.34-.4.4-.04.01-.09.02-.12.02Zm1.93-4.67c-.52.39-.94,1.05-1.08,1.69-.03.13-.04.23-.03.3.02.25.21.45.47.43.11-.01.24-.06.39-.16.58-.39,1.02-1.02,1.11-1.68.02-.11.02-.22,0-.32-.03-.32-.19-.46-.47-.43-.12.01-.26.07-.4.17Z"/>
    </g>
    <path class="cls-1" d="m2.35,13.8c0-.23,0-.45.01-.67.02-.22.04-.44.08-.66.07-.44.17-.87.31-1.29.27-.84.69-1.65,1.22-2.36.26-.36.56-.69.87-1.01.32-.31.66-.6,1.01-.86.72-.53,1.5-.95,2.32-1.28.41-.17.83-.31,1.25-.44.42-.13.85-.23,1.28-.33.21-.05.43-.09.65-.13.22-.03.43-.07.65-.1.43-.06.87-.11,1.31-.14.22-.02.44-.03.65-.04.11,0,.22-.01.33-.02h.33s.16-.02.16-.02h.16s.33,0,.33,0c.22,0,.44,0,.65,0,.87.01,1.74.04,2.61.11.43.03.87.07,1.3.12.43.05.87.11,1.3.17.43.07.86.15,1.29.23.43.09.86.19,1.28.3.85.23,1.68.5,2.5.85.41.17.8.37,1.19.58.39.21.77.45,1.13.71.36.26.71.55,1.03.87.32.32.62.67.87,1.05.25.39.46.81.59,1.27.06.23.1.47.12.71,0,.06,0,.12,0,.18v.09s0,.09,0,.09c-.01.12-.02.24-.04.35-.07.47-.22.91-.43,1.33-.21.41-.48.79-.78,1.14-.3.34-.64.64-1,.92l-.27.2c-.09.07-.19.13-.28.19l-.14.09s-.1.06-.14.09l-.29.17c-.78.44-1.6.78-2.43,1.06-.84.28-1.69.5-2.55.67l-.32.07c-.11.02-.22.04-.32.06l-.32.06-.16.03c-.05,0-.11.02-.16.02l-.65.09-.65.08c-.22.03-.43.05-.65.07-.22.02-.43.04-.65.06l-.65.05-.65.03-.33.02h-.33s-.65.03-.65.03h-.65c-.22,0-.44.01-.65,0-.87,0-1.74-.03-2.61-.08-.43-.02-.87-.06-1.3-.1-.43-.04-.87-.08-1.3-.14-.87-.11-1.73-.25-2.59-.44-.86-.19-1.7-.43-2.53-.74-.41-.16-.82-.33-1.22-.53-.2-.1-.39-.21-.59-.32-.19-.11-.38-.24-.57-.36-.18-.13-.36-.27-.54-.42-.17-.15-.34-.31-.49-.47-.31-.33-.59-.71-.8-1.13-.21-.42-.35-.88-.4-1.34-.03-.23-.03-.47-.02-.7.01-.24.05-.47.11-.7.12-.46.32-.88.57-1.26.25-.39.54-.73.87-1.05.65-.63,1.41-1.13,2.22-1.5.41-.18.83-.33,1.27-.44.44-.11.89-.18,1.34-.19.45-.01.91.03,1.36.14.45.11.88.3,1.26.55.12.08.15.24.07.36-.08.12-.24.15-.36.07h0c-.34-.22-.71-.37-1.11-.47-.39-.09-.8-.13-1.21-.11-.41.01-.82.08-1.22.18-.4.1-.79.24-1.17.42-.76.35-1.46.82-2.04,1.4-.29.29-.56.61-.77.95-.22.34-.39.71-.48,1.09-.05.19-.08.38-.09.58-.01.2,0,.4.02.59.05.39.16.78.34,1.13.18.35.42.68.7.98.14.15.29.29.44.42.16.13.32.26.49.38.17.12.35.23.53.33.18.1.36.21.55.3.37.19.76.35,1.16.5.79.3,1.61.52,2.44.71.83.18,1.68.32,2.53.42.42.05.85.1,1.28.13.43.04.85.07,1.28.09.86.05,1.71.07,2.57.07.21,0,.43,0,.64,0h.64s.64-.03.64-.03h.32s.32-.03.32-.03l.64-.03.64-.05c.21-.01.43-.04.64-.06.21-.02.43-.04.64-.07l.64-.08.63-.09c.05,0,.11-.01.16-.02l.16-.03.32-.05c.1-.02.21-.03.31-.06l.31-.06c.84-.17,1.66-.38,2.46-.65.8-.27,1.58-.6,2.31-1.01l.27-.16s.09-.05.13-.08l.13-.09c.09-.06.17-.11.26-.17l.25-.18c.33-.25.63-.53.91-.83.27-.31.5-.64.68-.99.18-.36.31-.73.37-1.12.02-.1.02-.2.03-.29v-.07s0-.07,0-.07c0-.05,0-.09,0-.14,0-.19-.04-.38-.09-.57-.1-.38-.28-.74-.5-1.08-.22-.34-.49-.65-.78-.95-.29-.29-.61-.56-.95-.8-.34-.24-.69-.47-1.06-.67-.37-.2-.75-.39-1.13-.56-.78-.34-1.58-.61-2.4-.83-1.64-.45-3.34-.7-5.05-.84-.85-.07-1.71-.11-2.57-.12-.21,0-.43,0-.64,0h-.32s-.16,0-.16,0h-.16s-.32.01-.32.01c-.11,0-.21,0-.32.01-.21,0-.43.02-.64.04-.43.03-.85.07-1.27.13-.21.03-.42.06-.63.09-.21.04-.42.07-.63.12-.83.17-1.65.4-2.44.72-.79.31-1.54.71-2.22,1.2-.34.25-.67.51-.97.81-.3.29-.58.61-.83.94-.51.67-.9,1.42-1.17,2.22-.14.4-.24.81-.31,1.22-.04.21-.06.42-.08.62-.02.21-.03.42-.02.62h0c0,.12-.09.21-.2.21-.11,0-.21-.09-.21-.2Z"/>
  </g>
</svg>